<svg width="20" height="21" viewBox="0 0 20 21" fill="none" xmlns="http://www.w3.org/2000/svg">
<g id="instagram 2" clip-path="url(#clip0_64001_923)">
<path id="Vector" d="M19.9804 6.63445C19.9336 5.57177 19.7617 4.84119 19.5156 4.20813C19.2616 3.53616 18.8709 2.93454 18.359 2.43441C17.8589 1.9265 17.2533 1.53183 16.5891 1.28184C15.9524 1.03567 15.2256 0.863821 14.163 0.816968C13.0924 0.766146 12.7525 0.754395 10.0371 0.754395C7.32173 0.754395 6.98185 0.766146 5.91521 0.813C4.85253 0.859853 4.12195 1.03185 3.48904 1.27787C2.81692 1.53183 2.2153 1.92253 1.71517 2.43441C1.20726 2.93454 0.812743 3.54013 0.562603 4.20432C0.31643 4.84119 0.144583 5.5678 0.0977294 6.63048C0.0469078 7.70109 0.0351562 8.04097 0.0351562 10.7563C0.0351562 13.4717 0.0469078 13.8116 0.0937614 14.8782C0.140615 15.9409 0.312615 16.6715 0.558787 17.3046C0.812743 17.9765 1.20726 18.5782 1.71517 19.0783C2.2153 19.5862 2.82088 19.9809 3.48508 20.2309C4.12195 20.477 4.84856 20.6489 5.91139 20.6957C6.97788 20.7427 7.31791 20.7543 10.0333 20.7543C12.7487 20.7543 13.0885 20.7427 14.1552 20.6957C15.2179 20.6489 15.9484 20.477 16.5813 20.2309C17.9254 19.7112 18.9881 18.6485 19.5078 17.3046C19.7538 16.6677 19.9258 15.9409 19.9727 14.8782C20.0195 13.8116 20.0313 13.4717 20.0313 10.7563C20.0313 8.04097 20.0273 7.70109 19.9804 6.63445ZM18.1794 14.8001C18.1364 15.7769 17.9723 16.3043 17.8356 16.6559C17.4995 17.5272 16.808 18.2187 15.9367 18.5548C15.5851 18.6916 15.0538 18.8556 14.0809 18.8985C13.026 18.9455 12.7096 18.9571 10.0411 18.9571C7.37255 18.9571 7.05221 18.9455 6.00113 18.8985C5.02438 18.8556 4.49693 18.6916 4.1453 18.5548C3.71171 18.3946 3.31704 18.1406 2.9967 17.8085C2.6646 17.4842 2.41065 17.0935 2.2504 16.6599C2.11365 16.3083 1.94959 15.7769 1.90671 14.8041C1.8597 13.7492 1.8481 13.4327 1.8481 10.7641C1.8481 8.09561 1.8597 7.77527 1.90671 6.72434C1.94959 5.74759 2.11365 5.22014 2.2504 4.86851C2.41065 4.43477 2.6646 4.04025 3.00067 3.71976C3.32483 3.38766 3.71553 3.1337 4.14927 2.97361C4.5009 2.83686 5.03231 2.6728 6.0051 2.62976C7.05999 2.58291 7.37652 2.57116 10.0449 2.57116C12.7174 2.57116 13.0337 2.58291 14.0848 2.62976C15.0616 2.6728 15.589 2.83686 15.9407 2.97361C16.3742 3.1337 16.7689 3.38766 17.0893 3.71976C17.4213 4.04407 17.6753 4.43477 17.8356 4.86851C17.9723 5.22014 18.1364 5.7514 18.1794 6.72434C18.2263 7.77923 18.238 8.09561 18.238 10.7641C18.238 13.4327 18.2263 13.7452 18.1794 14.8001Z" fill="currentColor"/>
<path id="Vector_2" d="M10.0371 5.61859C7.20074 5.61859 4.89941 7.91976 4.89941 10.7563C4.89941 13.5929 7.20074 15.894 10.0371 15.894C12.8737 15.894 15.1749 13.5929 15.1749 10.7563C15.1749 7.91976 12.8737 5.61859 10.0371 5.61859ZM10.0371 14.089C8.19702 14.089 6.70442 12.5966 6.70442 10.7563C6.70442 8.91605 8.19702 7.4236 10.0371 7.4236C11.8774 7.4236 13.3698 8.91605 13.3698 10.7563C13.3698 12.5966 11.8774 14.089 10.0371 14.089Z" fill="currentColor"/>
<path id="Vector_3" d="M16.5777 5.41549C16.5777 6.07785 16.0407 6.61492 15.3781 6.61492C14.7158 6.61492 14.1787 6.07785 14.1787 5.41549C14.1787 4.75297 14.7158 4.21606 15.3781 4.21606C16.0407 4.21606 16.5777 4.75297 16.5777 5.41549Z" fill="currentColor"/>
</g>
<defs>
<clipPath id="clip0_64001_923">
<rect width="20" height="20" fill="white" transform="translate(0 0.754395)"/>
</clipPath>
</defs>
</svg>
