<svg width="208" height="44" viewBox="0 0 208 44" fill="none" xmlns="http://www.w3.org/2000/svg">
<mask id="path-1-outside-1_64001_1255" maskUnits="userSpaceOnUse" x="188" y="1" width="18" height="32" fill="black">
<rect fill="white" x="188" y="1" width="18" height="32"/>
<path d="M204.28 32.04C201.96 32.2 200.04 32.0267 198.52 31.52C197 30.9867 195.787 30.16 194.88 29.04C194 27.92 193.347 26.5467 192.92 24.92C192.52 23.2667 192.28 21.4 192.2 19.32C192.12 17.32 192.067 15.4267 192.04 13.64C192.013 11.8267 192 10.08 192 8.4C192 6.72 192.013 5.02667 192.04 3.32L197.84 2.56C197.573 4.93333 197.32 7.16 197.08 9.24C196.867 11.2933 196.68 13.2667 196.52 15.16C196.36 17.0533 196.267 18.9333 196.24 20.8C196.213 22.5067 196.533 23.8133 197.2 24.72C197.867 25.6 198.827 26.1867 200.08 26.48C201.333 26.7467 202.813 26.8 204.52 26.64L204.28 32.04ZM203.2 17.2C201.12 16.7467 198.92 16.5333 196.6 16.56C194.28 16.5867 192.013 16.7867 189.8 17.16L189.28 14.56C191.68 14.0267 194.147 13.6933 196.68 13.56C199.24 13.4267 201.587 13.48 203.72 13.72L203.2 17.2Z"/>
</mask>
<path d="M204.28 32.04C201.96 32.2 200.04 32.0267 198.52 31.52C197 30.9867 195.787 30.16 194.88 29.04C194 27.92 193.347 26.5467 192.92 24.92C192.52 23.2667 192.28 21.4 192.2 19.32C192.12 17.32 192.067 15.4267 192.04 13.64C192.013 11.8267 192 10.08 192 8.4C192 6.72 192.013 5.02667 192.04 3.32L197.84 2.56C197.573 4.93333 197.32 7.16 197.08 9.24C196.867 11.2933 196.68 13.2667 196.52 15.16C196.36 17.0533 196.267 18.9333 196.24 20.8C196.213 22.5067 196.533 23.8133 197.2 24.72C197.867 25.6 198.827 26.1867 200.08 26.48C201.333 26.7467 202.813 26.8 204.52 26.64L204.28 32.04ZM203.2 17.2C201.12 16.7467 198.92 16.5333 196.6 16.56C194.28 16.5867 192.013 16.7867 189.8 17.16L189.28 14.56C191.68 14.0267 194.147 13.6933 196.68 13.56C199.24 13.4267 201.587 13.48 203.72 13.72L203.2 17.2Z" fill="#9F0FFF"/>
<path d="M204.28 32.04L204.321 32.6386L204.856 32.6017L204.879 32.0666L204.28 32.04ZM198.52 31.52L198.321 32.0862L198.33 32.0892L198.52 31.52ZM194.88 29.04L194.408 29.4107L194.414 29.4175L194.88 29.04ZM192.92 24.92L192.337 25.0611L192.34 25.0722L192.92 24.92ZM192.2 19.32L192.8 19.2969L192.8 19.296L192.2 19.32ZM192.04 13.64L191.44 13.6488L191.44 13.649L192.04 13.64ZM192.04 3.32L191.962 2.72509L191.448 2.79242L191.44 3.31063L192.04 3.32ZM197.84 2.56L198.436 2.62699L198.522 1.86553L197.762 1.96508L197.84 2.56ZM197.08 9.24L196.484 9.17122L196.483 9.178L197.08 9.24ZM196.52 15.16L195.922 15.1095L195.922 15.1095L196.52 15.16ZM196.24 20.8L196.84 20.8094L196.84 20.8086L196.24 20.8ZM197.2 24.72L196.717 25.0755L196.722 25.0823L197.2 24.72ZM200.08 26.48L199.943 27.0643L199.955 27.0669L200.08 26.48ZM204.52 26.64L205.119 26.6666L205.15 25.9783L204.464 26.0426L204.52 26.64ZM203.2 17.2L203.072 17.7862L203.699 17.9228L203.793 17.2887L203.2 17.2ZM196.6 16.56L196.607 17.16L196.607 17.16L196.6 16.56ZM189.8 17.16L189.212 17.2777L189.326 17.8485L189.9 17.7516L189.8 17.16ZM189.28 14.56L189.15 13.9743L188.576 14.1017L188.692 14.6777L189.28 14.56ZM196.68 13.56L196.649 12.9608L196.648 12.9608L196.68 13.56ZM203.72 13.72L204.313 13.8087L204.405 13.1933L203.787 13.1238L203.72 13.72ZM204.239 31.4414C201.965 31.5983 200.13 31.4241 198.71 30.9508L198.33 32.0892C199.95 32.6292 201.955 32.8017 204.321 32.6386L204.239 31.4414ZM198.719 30.9538C197.291 30.4529 196.175 29.6861 195.346 28.6625L194.414 29.4175C195.398 30.6339 196.709 31.5205 198.321 32.0862L198.719 30.9538ZM195.352 28.6693C194.531 27.6245 193.91 26.3291 193.5 24.7678L192.34 25.0722C192.783 26.7642 193.469 28.2155 194.408 29.4107L195.352 28.6693ZM193.503 24.7789C193.114 23.1717 192.878 21.3456 192.8 19.2969L191.6 19.3431C191.682 21.4544 191.926 23.3616 192.337 25.0611L193.503 24.7789ZM192.8 19.296C192.72 17.3004 192.667 15.4121 192.64 13.631L191.44 13.649C191.467 15.4412 191.52 17.3396 191.6 19.344L192.8 19.296ZM192.64 13.6312C192.613 11.8206 192.6 10.0768 192.6 8.4H191.4C191.4 10.0832 191.413 11.8328 191.44 13.6488L192.64 13.6312ZM192.6 8.4C192.6 6.72317 192.613 5.03296 192.64 3.32937L191.44 3.31063C191.413 5.02037 191.4 6.71682 191.4 8.4H192.6ZM192.118 3.91491L197.918 3.15491L197.762 1.96508L191.962 2.72509L192.118 3.91491ZM197.244 2.493C196.977 4.86582 196.724 7.09189 196.484 9.17123L197.676 9.30877C197.916 7.22811 198.17 5.00084 198.436 2.62699L197.244 2.493ZM196.483 9.178C196.27 11.2348 196.082 13.212 195.922 15.1095L197.118 15.2105C197.278 13.3213 197.464 11.3518 197.677 9.302L196.483 9.178ZM195.922 15.1095C195.761 17.0165 195.667 18.9105 195.64 20.7914L196.84 20.8086C196.866 18.9562 196.959 17.0901 197.118 15.2105L195.922 15.1095ZM195.64 20.7906C195.612 22.5642 195.941 24.0211 196.717 25.0754L197.683 24.3646C197.125 23.6056 196.814 22.4492 196.84 20.8094L195.64 20.7906ZM196.722 25.0823C197.487 26.0919 198.577 26.7446 199.943 27.0642L200.217 25.8958C199.076 25.6288 198.247 25.1081 197.678 24.3577L196.722 25.0823ZM199.955 27.0669C201.284 27.3496 202.828 27.4013 204.576 27.2374L204.464 26.0426C202.799 26.1987 201.383 26.1437 200.205 25.8931L199.955 27.0669ZM203.921 26.6134L203.681 32.0134L204.879 32.0666L205.119 26.6666L203.921 26.6134ZM203.328 16.6138C201.2 16.15 198.954 15.9329 196.593 15.96L196.607 17.16C198.886 17.1338 201.04 17.3434 203.072 17.7862L203.328 16.6138ZM196.593 15.96C194.243 15.9871 191.945 16.1897 189.7 16.5684L189.9 17.7516C192.081 17.3837 194.317 17.1863 196.607 17.16L196.593 15.96ZM190.388 17.0423L189.868 14.4423L188.692 14.6777L189.212 17.2777L190.388 17.0423ZM189.41 15.1457C191.777 14.6198 194.21 14.2908 196.712 14.1592L196.648 12.9608C194.083 13.0959 191.583 13.4335 189.15 13.9743L189.41 15.1457ZM196.711 14.1592C199.245 14.0272 201.558 14.0805 203.653 14.3162L203.787 13.1238C201.616 12.8795 199.235 12.8261 196.649 12.9608L196.711 14.1592ZM203.127 13.6313L202.607 17.1113L203.793 17.2887L204.313 13.8087L203.127 13.6313Z" fill="#7200A3" mask="url(#path-1-outside-1_64001_1255)"/>
<mask id="path-3-outside-2_64001_1255" maskUnits="userSpaceOnUse" x="168" y="12" width="19" height="21" fill="black">
<rect fill="white" x="168" y="12" width="19" height="21"/>
<path d="M175 32.24L173.56 27C173.667 24.7067 174.053 22.6133 174.72 20.72C175.413 18.8267 176.32 17.2667 177.44 16.04C178.56 14.7867 179.827 13.96 181.24 13.56C182.653 13.16 184.12 13.32 185.64 14.04L184.72 19.36C183.013 18.56 181.573 18.2533 180.4 18.44C179.253 18.6267 178.32 19.28 177.6 20.4C176.88 21.52 176.32 23.08 175.92 25.08C175.52 27.0533 175.213 29.44 175 32.24ZM175 32.24H169.64C169.933 30.16 170.147 28.1333 170.28 26.16C170.413 24.1867 170.453 22.2267 170.4 20.28C170.373 18.3333 170.253 16.3733 170.04 14.4L174.28 13.52C174.547 15.3067 174.747 16.9867 174.88 18.56C175.04 20.1067 175.133 21.6133 175.16 23.08C175.213 24.52 175.213 26 175.16 27.52C175.133 29.0133 175.08 30.5867 175 32.24Z"/>
</mask>
<path d="M175 32.24L173.56 27C173.667 24.7067 174.053 22.6133 174.72 20.72C175.413 18.8267 176.32 17.2667 177.44 16.04C178.56 14.7867 179.827 13.96 181.24 13.56C182.653 13.16 184.12 13.32 185.64 14.04L184.72 19.36C183.013 18.56 181.573 18.2533 180.4 18.44C179.253 18.6267 178.32 19.28 177.6 20.4C176.88 21.52 176.32 23.08 175.92 25.08C175.52 27.0533 175.213 29.44 175 32.24ZM175 32.24H169.64C169.933 30.16 170.147 28.1333 170.28 26.16C170.413 24.1867 170.453 22.2267 170.4 20.28C170.373 18.3333 170.253 16.3733 170.04 14.4L174.28 13.52C174.547 15.3067 174.747 16.9867 174.88 18.56C175.04 20.1067 175.133 21.6133 175.16 23.08C175.213 24.52 175.213 26 175.16 27.52C175.133 29.0133 175.08 30.5867 175 32.24Z" fill="#3366FF"/>
<path d="M175 32.24L174.421 32.399L175.598 32.2856L175 32.24ZM173.56 27L172.961 26.9721L172.956 27.0672L172.981 27.159L173.56 27ZM174.72 20.72L174.157 20.5137L174.154 20.5207L174.72 20.72ZM177.44 16.04L177.883 16.4446L177.887 16.4398L177.44 16.04ZM181.24 13.56L181.077 12.9827L181.077 12.9827L181.24 13.56ZM185.64 14.04L186.231 14.1422L186.309 13.6929L185.897 13.4978L185.64 14.04ZM184.72 19.36L184.465 19.9033L185.177 20.237L185.311 19.4622L184.72 19.36ZM180.4 18.44L180.306 17.8474L180.304 17.8478L180.4 18.44ZM177.6 20.4L177.095 20.0755L177.095 20.0755L177.6 20.4ZM175.92 25.08L176.508 25.1992L176.508 25.1977L175.92 25.08ZM175 32.24V32.84H175.572L175.599 32.269L175 32.24ZM169.64 32.24L169.046 32.1562L168.949 32.84H169.64V32.24ZM170.28 26.16L169.681 26.1196L169.681 26.1196L170.28 26.16ZM170.4 20.28L169.8 20.2882L169.8 20.2964L170.4 20.28ZM170.04 14.4L169.918 13.8125L169.385 13.9232L169.443 14.4645L170.04 14.4ZM174.28 13.52L174.873 13.4314L174.78 12.8035L174.158 12.9325L174.28 13.52ZM174.88 18.56L174.282 18.6107L174.283 18.6217L174.88 18.56ZM175.16 23.08L174.56 23.0909L174.56 23.1022L175.16 23.08ZM175.16 27.52L174.56 27.499L174.56 27.5093L175.16 27.52ZM175.579 32.081L174.139 26.841L172.981 27.159L174.421 32.399L175.579 32.081ZM174.159 27.0279C174.264 24.7848 174.641 22.7501 175.286 20.9193L174.154 20.5207C173.465 22.4765 173.07 24.6286 172.961 26.9721L174.159 27.0279ZM175.283 20.9263C175.956 19.091 176.826 17.6027 177.883 16.4446L176.997 15.6354C175.814 16.9306 174.871 18.5623 174.157 20.5137L175.283 20.9263ZM177.887 16.4398C178.943 15.2588 180.115 14.502 181.403 14.1373L181.077 12.9827C179.539 13.418 178.177 14.3145 176.993 15.6402L177.887 16.4398ZM181.403 14.1373C182.657 13.7826 183.974 13.9148 185.383 14.5822L185.897 13.4978C184.266 12.7252 182.65 12.5374 181.077 12.9827L181.403 14.1373ZM185.049 13.9378L184.129 19.2578L185.311 19.4622L186.231 14.1422L185.049 13.9378ZM184.975 18.8167C183.218 17.9932 181.649 17.6338 180.306 17.8475L180.494 19.0325C181.498 18.8729 182.809 19.1268 184.465 19.9033L184.975 18.8167ZM180.304 17.8478C178.964 18.0659 177.892 18.8355 177.095 20.0755L178.105 20.7245C178.748 19.7245 179.543 19.1874 180.496 19.0322L180.304 17.8478ZM177.095 20.0755C176.319 21.283 175.739 22.9238 175.332 24.9623L176.508 25.1977C176.901 23.2362 177.441 21.757 178.105 20.7245L177.095 20.0755ZM175.332 24.9608C174.926 26.9658 174.616 29.3785 174.402 32.1944L175.598 32.2856C175.81 29.5015 176.114 27.1409 176.508 25.1992L175.332 24.9608ZM175 31.64H169.64V32.84H175V31.64ZM170.234 32.3238C170.529 30.2303 170.744 28.1891 170.879 26.2004L169.681 26.1196C169.549 28.0775 169.337 30.0897 169.046 32.1562L170.234 32.3238ZM170.879 26.2004C171.013 24.2085 171.054 22.2295 171 20.2636L169.8 20.2964C169.853 22.2238 169.813 24.1649 169.681 26.1196L170.879 26.2004ZM171 20.2718C170.973 18.306 170.852 16.3272 170.637 14.3355L169.443 14.4645C169.655 16.4195 169.774 18.3607 169.8 20.2882L171 20.2718ZM170.162 14.9875L174.402 14.1075L174.158 12.9325L169.918 13.8125L170.162 14.9875ZM173.687 13.6086C173.952 15.3844 174.15 17.0517 174.282 18.6107L175.478 18.5093C175.343 16.9217 175.142 15.2289 174.873 13.4314L173.687 13.6086ZM174.283 18.6217C174.442 20.1525 174.534 21.6422 174.56 23.0909L175.76 23.0691C175.733 21.5845 175.638 20.0608 175.477 18.4983L174.283 18.6217ZM174.56 23.1022C174.613 24.527 174.613 25.9926 174.56 27.499L175.76 27.541C175.813 26.0074 175.813 24.513 175.76 23.0578L174.56 23.1022ZM174.56 27.5093C174.534 28.9959 174.48 30.5631 174.401 32.211L175.599 32.269C175.68 30.6102 175.733 29.0308 175.76 27.5307L174.56 27.5093Z" fill="#0039E6" mask="url(#path-3-outside-2_64001_1255)"/>
<mask id="path-5-outside-3_64001_1255" maskUnits="userSpaceOnUse" x="140" y="0" width="26" height="33" fill="black">
<rect fill="white" x="140" width="26" height="33"/>
<path d="M158.76 32.04C158.893 31.16 159.053 30.0133 159.24 28.6C159.453 27.16 159.64 25.5733 159.8 23.84C159.987 22.1067 160.107 20.3333 160.16 18.52C160.24 16.68 160.2 14.9067 160.04 13.2C159.907 11.4667 159.627 9.92 159.2 8.56C158.773 7.2 158.16 6.12 157.36 5.32C156.587 4.52 155.573 4.12 154.32 4.12C152.96 4.12 151.813 4.57333 150.88 5.48C149.973 6.36 149.227 7.57333 148.64 9.12C148.08 10.64 147.667 12.36 147.4 14.28C147.133 16.2 146.973 18.2 146.92 20.28C146.893 22.3333 146.933 24.3467 147.04 26.32C147.147 28.2933 147.32 30.0933 147.56 31.72L141.48 32.28C141.24 27.8 141.28 23.68 141.6 19.92C141.92 16.1333 142.573 12.8533 143.56 10.08C144.547 7.30667 145.92 5.16 147.68 3.64C149.467 2.12 151.68 1.36 154.32 1.36C156.747 1.36 158.733 2.13333 160.28 3.68C161.827 5.2 162.987 7.33333 163.76 10.08C164.533 12.8267 164.96 16.0267 165.04 19.68C165.12 23.3067 164.893 27.2267 164.36 31.44L158.76 32.04ZM143.48 24.4L144.84 20.84C146.44 21.24 148.013 21.5067 149.56 21.64C151.133 21.7733 152.653 21.8267 154.12 21.8C155.587 21.7467 157 21.64 158.36 21.48C159.747 21.32 161.04 21.1333 162.24 20.92L162.64 23.6C160.72 24.08 158.72 24.4267 156.64 24.64C154.587 24.8267 152.453 24.8933 150.24 24.84C148.053 24.7867 145.8 24.64 143.48 24.4Z"/>
</mask>
<path d="M158.76 32.04C158.893 31.16 159.053 30.0133 159.24 28.6C159.453 27.16 159.64 25.5733 159.8 23.84C159.987 22.1067 160.107 20.3333 160.16 18.52C160.24 16.68 160.2 14.9067 160.04 13.2C159.907 11.4667 159.627 9.92 159.2 8.56C158.773 7.2 158.16 6.12 157.36 5.32C156.587 4.52 155.573 4.12 154.32 4.12C152.96 4.12 151.813 4.57333 150.88 5.48C149.973 6.36 149.227 7.57333 148.64 9.12C148.08 10.64 147.667 12.36 147.4 14.28C147.133 16.2 146.973 18.2 146.92 20.28C146.893 22.3333 146.933 24.3467 147.04 26.32C147.147 28.2933 147.32 30.0933 147.56 31.72L141.48 32.28C141.24 27.8 141.28 23.68 141.6 19.92C141.92 16.1333 142.573 12.8533 143.56 10.08C144.547 7.30667 145.92 5.16 147.68 3.64C149.467 2.12 151.68 1.36 154.32 1.36C156.747 1.36 158.733 2.13333 160.28 3.68C161.827 5.2 162.987 7.33333 163.76 10.08C164.533 12.8267 164.96 16.0267 165.04 19.68C165.12 23.3067 164.893 27.2267 164.36 31.44L158.76 32.04ZM143.48 24.4L144.84 20.84C146.44 21.24 148.013 21.5067 149.56 21.64C151.133 21.7733 152.653 21.8267 154.12 21.8C155.587 21.7467 157 21.64 158.36 21.48C159.747 21.32 161.04 21.1333 162.24 20.92L162.64 23.6C160.72 24.08 158.72 24.4267 156.64 24.64C154.587 24.8267 152.453 24.8933 150.24 24.84C148.053 24.7867 145.8 24.64 143.48 24.4Z" fill="#00AFEF"/>
<path d="M158.76 32.04L158.167 31.9501L158.05 32.7195L158.824 32.6366L158.76 32.04ZM159.24 28.6L158.646 28.5121L158.645 28.5214L159.24 28.6ZM159.8 23.84L159.203 23.7757L159.203 23.7848L159.8 23.84ZM160.16 18.52L159.561 18.4939L159.56 18.5024L160.16 18.52ZM160.04 13.2L159.442 13.246L159.443 13.256L160.04 13.2ZM159.2 8.56L159.772 8.3804L159.772 8.38039L159.2 8.56ZM157.36 5.32L156.929 5.73707L156.936 5.74426L157.36 5.32ZM150.88 5.48L151.298 5.91055L151.298 5.91037L150.88 5.48ZM148.64 9.12L148.079 8.9072L148.077 8.91258L148.64 9.12ZM147.4 14.28L147.994 14.3625L147.994 14.3625L147.4 14.28ZM146.92 20.28L146.32 20.2646L146.32 20.2722L146.92 20.28ZM147.56 31.72L147.615 32.3175L148.246 32.2593L148.154 31.6324L147.56 31.72ZM141.48 32.28L140.881 32.3121L140.914 32.9347L141.535 32.8775L141.48 32.28ZM141.6 19.92L142.198 19.9709L142.198 19.9705L141.6 19.92ZM143.56 10.08L142.995 9.87889L142.995 9.87889L143.56 10.08ZM147.68 3.64L147.291 3.18299L147.288 3.1859L147.68 3.64ZM160.28 3.68L159.856 4.10428L159.859 4.10794L160.28 3.68ZM163.76 10.08L164.338 9.91739L164.338 9.91739L163.76 10.08ZM165.04 19.68L164.44 19.6931L164.44 19.6932L165.04 19.68ZM164.36 31.44L164.424 32.0366L164.896 31.986L164.955 31.5153L164.36 31.44ZM143.48 24.4L142.92 24.1859L142.64 24.9164L143.418 24.9968L143.48 24.4ZM144.84 20.84L144.986 20.2579L144.469 20.1289L144.28 20.6259L144.84 20.84ZM149.56 21.64L149.508 22.2378L149.509 22.2379L149.56 21.64ZM154.12 21.8L154.131 22.4L154.142 22.3996L154.12 21.8ZM158.36 21.48L158.291 20.884L158.29 20.8841L158.36 21.48ZM162.24 20.92L162.833 20.8314L162.742 20.2213L162.135 20.3293L162.24 20.92ZM162.64 23.6L162.786 24.1821L163.314 24.05L163.233 23.5114L162.64 23.6ZM156.64 24.64L156.694 25.2376L156.701 25.2369L156.64 24.64ZM150.24 24.84L150.225 25.4398L150.226 25.4398L150.24 24.84ZM159.353 32.1299C159.487 31.2446 159.648 30.0937 159.835 28.6786L158.645 28.5214C158.459 29.9329 158.299 31.0754 158.167 31.9501L159.353 32.1299ZM159.834 28.6879C160.049 27.2352 160.237 25.6374 160.397 23.8951L159.203 23.7848C159.043 25.5093 158.858 27.0848 158.646 28.5121L159.834 28.6879ZM160.397 23.9042C160.585 22.1548 160.706 20.3659 160.76 18.5376L159.56 18.5024C159.507 20.3007 159.388 22.0585 159.203 23.7758L160.397 23.9042ZM160.759 18.5461C160.841 16.6807 160.8 14.8799 160.637 13.144L159.443 13.256C159.6 14.9335 159.639 16.6793 159.561 18.4939L160.759 18.5461ZM160.638 13.154C160.502 11.3848 160.215 9.79205 159.772 8.3804L158.628 8.7396C159.038 10.0479 159.311 11.5485 159.442 13.246L160.638 13.154ZM159.772 8.38039C159.324 6.95153 158.668 5.77963 157.784 4.89573L156.936 5.74426C157.652 6.46036 158.222 7.44846 158.628 8.7396L159.772 8.38039ZM157.791 4.90298C156.89 3.97075 155.713 3.52 154.32 3.52V4.72C155.433 4.72 156.283 5.06924 156.929 5.73701L157.791 4.90298ZM154.32 3.52C152.812 3.52 151.513 4.02885 150.462 5.04963L151.298 5.91037C152.114 5.11781 153.108 4.72 154.32 4.72V3.52ZM150.462 5.04945C149.476 6.00653 148.688 7.30269 148.079 8.90721L149.201 9.33279C149.766 7.84397 150.471 6.71346 151.298 5.91055L150.462 5.04945ZM148.077 8.91258C147.5 10.4799 147.077 12.2429 146.806 14.1975L147.994 14.3625C148.256 12.4771 148.66 10.8001 149.203 9.32742L148.077 8.91258ZM146.806 14.1975C146.536 16.1413 146.374 18.1638 146.32 20.2646L147.52 20.2954C147.573 18.2362 147.731 16.2587 147.994 14.3625L146.806 14.1975ZM146.32 20.2722C146.293 22.3384 146.333 24.3652 146.441 26.3524L147.639 26.2876C147.533 24.3282 147.493 22.3282 147.52 20.2878L146.32 20.2722ZM146.441 26.3524C146.548 28.3406 146.723 30.1594 146.966 31.8076L148.154 31.6324C147.917 30.0273 147.745 28.246 147.639 26.2876L146.441 26.3524ZM147.505 31.1225L141.425 31.6825L141.535 32.8775L147.615 32.3175L147.505 31.1225ZM142.079 32.2479C141.84 27.7906 141.881 23.6987 142.198 19.9709L141.002 19.8691C140.679 23.6613 140.64 27.8094 140.881 32.3121L142.079 32.2479ZM142.198 19.9705C142.515 16.2212 143.16 12.9942 144.125 10.2811L142.995 9.87889C141.987 12.7125 141.325 16.0455 141.002 19.8695L142.198 19.9705ZM144.125 10.2811C145.086 7.58011 146.409 5.53041 148.072 4.09409L147.288 3.1859C145.431 4.78959 144.007 7.03323 142.995 9.87889L144.125 10.2811ZM148.069 4.09699C149.733 2.68094 151.803 1.96 154.32 1.96V0.759999C151.557 0.759999 149.2 1.55906 147.291 3.183L148.069 4.09699ZM154.32 1.96C156.607 1.96 158.434 2.68293 159.856 4.10426L160.704 3.25574C159.032 1.58373 156.887 0.759999 154.32 0.759999V1.96ZM159.859 4.10794C161.312 5.53509 162.429 7.56571 163.182 10.2426L164.338 9.91739C163.545 7.10095 162.342 4.86491 160.701 3.25206L159.859 4.10794ZM163.182 10.2426C163.939 12.9292 164.361 16.077 164.44 19.6931L165.64 19.6669C165.559 15.9763 165.128 12.7241 164.338 9.91739L163.182 10.2426ZM164.44 19.6932C164.519 23.2858 164.295 27.1759 163.765 31.3647L164.955 31.5153C165.492 27.2775 165.721 23.3275 165.64 19.6668L164.44 19.6932ZM164.296 30.8434L158.696 31.4434L158.824 32.6366L164.424 32.0366L164.296 30.8434ZM144.04 24.6141L145.4 21.0541L144.28 20.6259L142.92 24.1859L144.04 24.6141ZM144.694 21.4221C146.323 21.8293 147.928 22.1016 149.508 22.2378L149.612 21.0422C148.098 20.9118 146.557 20.6507 144.986 20.2579L144.694 21.4221ZM149.509 22.2379C151.102 22.3728 152.642 22.427 154.131 22.3999L154.109 21.2001C152.664 21.2264 151.165 21.1739 149.611 21.0421L149.509 22.2379ZM154.142 22.3996C155.623 22.3457 157.053 22.2379 158.43 22.0759L158.29 20.8841C156.947 21.0421 155.55 21.1476 154.098 21.2004L154.142 22.3996ZM158.429 22.076C159.826 21.9148 161.131 21.7265 162.345 21.5107L162.135 20.3293C160.949 20.5402 159.667 20.7252 158.291 20.884L158.429 22.076ZM161.647 21.0086L162.047 23.6886L163.233 23.5114L162.833 20.8314L161.647 21.0086ZM162.494 23.0179C160.604 23.4906 158.632 23.8325 156.579 24.0431L156.701 25.2369C158.808 25.0208 160.836 24.6694 162.786 24.1821L162.494 23.0179ZM156.586 24.0425C154.557 24.2269 152.447 24.293 150.254 24.2402L150.226 25.4398C152.46 25.4937 154.617 25.4264 156.694 25.2375L156.586 24.0425ZM150.255 24.2402C148.085 24.1873 145.847 24.0417 143.542 23.8032L143.418 24.9968C145.753 25.2383 148.022 25.3861 150.225 25.4398L150.255 24.2402Z" fill="#00698F" mask="url(#path-5-outside-3_64001_1255)"/>
<mask id="path-7-outside-4_64001_1255" maskUnits="userSpaceOnUse" x="102" y="11" width="23" height="33" fill="black">
<rect fill="white" x="102" y="11" width="23" height="33"/>
<path d="M102.84 41.16L104.92 36.36C106.6 37.5867 108.187 38.4933 109.68 39.08C111.2 39.6933 112.56 39.9067 113.76 39.72C114.987 39.5333 116 38.8933 116.8 37.8C117.6 36.7067 118.147 35.1067 118.44 33C118.6 31.8267 118.707 30.7333 118.76 29.72C118.84 28.7067 118.867 27.6933 118.84 26.68C118.84 25.64 118.813 24.52 118.76 23.32C118.707 22.12 118.64 20.7733 118.56 19.28C118.48 17.76 118.4 16 118.32 14L123.56 12.72C123.64 15.1467 123.667 17.5733 123.64 20C123.613 22.4267 123.52 24.7733 123.36 27.04C123.2 29.28 122.947 31.36 122.6 33.28C122.147 35.8933 121.333 37.96 120.16 39.48C119.013 41 117.573 42.04 115.84 42.6C114.133 43.16 112.173 43.2933 109.96 43C107.773 42.7333 105.4 42.12 102.84 41.16ZM110.6 32.44C109.107 32.44 107.88 32.0533 106.92 31.28C105.96 30.48 105.2 29.4267 104.64 28.12C104.107 26.8133 103.733 25.3467 103.52 23.72C103.333 22.0933 103.267 20.4267 103.32 18.72C103.373 16.9867 103.507 15.3333 103.72 13.76L109.32 13.6C108.973 15.1467 108.707 16.68 108.52 18.2C108.333 19.6933 108.253 21.12 108.28 22.48C108.307 23.84 108.44 25.0533 108.68 26.12C108.947 27.16 109.333 27.9867 109.84 28.6C110.347 29.2133 110.987 29.52 111.76 29.52C112.587 29.52 113.36 29.12 114.08 28.32C114.8 27.52 115.453 26.4267 116.04 25.04C116.627 23.6267 117.107 21.9867 117.48 20.12C117.88 18.2267 118.16 16.1867 118.32 14L120.4 19.16C120.347 20.2533 120.16 21.4133 119.84 22.64C119.52 23.84 119.08 25.0267 118.52 26.2C117.987 27.3733 117.333 28.4267 116.56 29.36C115.787 30.2933 114.893 31.04 113.88 31.6C112.893 32.16 111.8 32.44 110.6 32.44Z"/>
</mask>
<path d="M102.84 41.16L104.92 36.36C106.6 37.5867 108.187 38.4933 109.68 39.08C111.2 39.6933 112.56 39.9067 113.76 39.72C114.987 39.5333 116 38.8933 116.8 37.8C117.6 36.7067 118.147 35.1067 118.44 33C118.6 31.8267 118.707 30.7333 118.76 29.72C118.84 28.7067 118.867 27.6933 118.84 26.68C118.84 25.64 118.813 24.52 118.76 23.32C118.707 22.12 118.64 20.7733 118.56 19.28C118.48 17.76 118.4 16 118.32 14L123.56 12.72C123.64 15.1467 123.667 17.5733 123.64 20C123.613 22.4267 123.52 24.7733 123.36 27.04C123.2 29.28 122.947 31.36 122.6 33.28C122.147 35.8933 121.333 37.96 120.16 39.48C119.013 41 117.573 42.04 115.84 42.6C114.133 43.16 112.173 43.2933 109.96 43C107.773 42.7333 105.4 42.12 102.84 41.16ZM110.6 32.44C109.107 32.44 107.88 32.0533 106.92 31.28C105.96 30.48 105.2 29.4267 104.64 28.12C104.107 26.8133 103.733 25.3467 103.52 23.72C103.333 22.0933 103.267 20.4267 103.32 18.72C103.373 16.9867 103.507 15.3333 103.72 13.76L109.32 13.6C108.973 15.1467 108.707 16.68 108.52 18.2C108.333 19.6933 108.253 21.12 108.28 22.48C108.307 23.84 108.44 25.0533 108.68 26.12C108.947 27.16 109.333 27.9867 109.84 28.6C110.347 29.2133 110.987 29.52 111.76 29.52C112.587 29.52 113.36 29.12 114.08 28.32C114.8 27.52 115.453 26.4267 116.04 25.04C116.627 23.6267 117.107 21.9867 117.48 20.12C117.88 18.2267 118.16 16.1867 118.32 14L120.4 19.16C120.347 20.2533 120.16 21.4133 119.84 22.64C119.52 23.84 119.08 25.0267 118.52 26.2C117.987 27.3733 117.333 28.4267 116.56 29.36C115.787 30.2933 114.893 31.04 113.88 31.6C112.893 32.16 111.8 32.44 110.6 32.44Z" fill="#00C85B"/>
<path d="M102.84 41.16L102.289 40.9214L102.039 41.5003L102.629 41.7218L102.84 41.16ZM104.92 36.36L105.274 35.8754L104.668 35.4329L104.369 36.1214L104.92 36.36ZM109.68 39.08L109.905 38.5236L109.899 38.5215L109.68 39.08ZM113.76 39.72L113.67 39.1268L113.668 39.1271L113.76 39.72ZM116.8 37.8L117.284 38.1543L117.284 38.1543L116.8 37.8ZM118.44 33L119.034 33.0827L119.034 33.0811L118.44 33ZM118.76 29.72L118.162 29.6728L118.161 29.6806L118.161 29.6885L118.76 29.72ZM118.84 26.68H118.24V26.6879L118.24 26.6958L118.84 26.68ZM118.76 23.32L119.359 23.2934L119.359 23.2934L118.76 23.32ZM118.56 19.28L117.961 19.3115L117.961 19.3121L118.56 19.28ZM118.32 14L118.178 13.4171L117.701 13.5336L117.72 14.024L118.32 14ZM123.56 12.72L124.16 12.7002L124.135 11.9618L123.418 12.1371L123.56 12.72ZM123.64 20L124.24 20.0066L124.24 20.0066L123.64 20ZM123.36 27.04L123.958 27.0827L123.959 27.0822L123.36 27.04ZM122.6 33.28L122.01 33.1734L122.009 33.1774L122.6 33.28ZM120.16 39.48L119.685 39.1133L119.681 39.1187L120.16 39.48ZM115.84 42.6L115.656 42.0291L115.653 42.0299L115.84 42.6ZM109.96 43L110.039 42.4052L110.033 42.4044L109.96 43ZM106.92 31.28L106.536 31.741L106.544 31.7473L106.92 31.28ZM104.64 28.12L104.084 28.3468L104.089 28.3564L104.64 28.12ZM103.52 23.72L102.924 23.7884L102.925 23.798L103.52 23.72ZM103.32 18.72L103.92 18.7387L103.92 18.7385L103.32 18.72ZM103.72 13.76L103.703 13.1602L103.194 13.1748L103.125 13.6794L103.72 13.76ZM109.32 13.6L109.905 13.7312L110.074 12.9782L109.303 13.0002L109.32 13.6ZM108.52 18.2L109.115 18.2744L109.116 18.2731L108.52 18.2ZM108.68 26.12L108.095 26.2517L108.097 26.2604L108.099 26.269L108.68 26.12ZM109.84 28.6L110.303 28.2179L110.303 28.2179L109.84 28.6ZM114.08 28.32L114.526 28.7214L114.526 28.7214L114.08 28.32ZM116.04 25.04L116.593 25.2738L116.594 25.27L116.04 25.04ZM117.48 20.12L116.893 19.996L116.892 20.0023L117.48 20.12ZM118.32 14L118.876 13.7757L117.722 13.9562L118.32 14ZM120.4 19.16L120.999 19.1892L121.006 19.0578L120.956 18.9357L120.4 19.16ZM119.84 22.64L120.42 22.7946L120.421 22.7915L119.84 22.64ZM118.52 26.2L117.978 25.9415L117.974 25.9517L118.52 26.2ZM116.56 29.36L117.022 29.7428L117.022 29.7428L116.56 29.36ZM113.88 31.6L113.59 31.0748L113.584 31.0782L113.88 31.6ZM103.391 41.3986L105.471 36.5986L104.369 36.1214L102.289 40.9214L103.391 41.3986ZM104.566 36.8446C106.276 38.0931 107.908 39.0284 109.461 39.6385L109.899 38.5215C108.466 37.9582 106.924 37.0802 105.274 35.8754L104.566 36.8446ZM109.455 39.6364C111.042 40.2766 112.514 40.521 113.852 40.3129L113.668 39.1271C112.606 39.2923 111.358 39.1101 109.905 38.5236L109.455 39.6364ZM113.85 40.3132C115.25 40.1002 116.399 39.3635 117.284 38.1543L116.316 37.4457C115.601 38.4232 114.723 38.9665 113.67 39.1268L113.85 40.3132ZM117.284 38.1543C118.167 36.9479 118.734 35.237 119.034 33.0827L117.846 32.9173C117.559 34.9763 117.033 36.4654 116.316 37.4457L117.284 38.1543ZM119.034 33.0811C119.196 31.8939 119.305 30.7839 119.359 29.7515L118.161 29.6885C118.108 30.6828 118.004 31.7594 117.846 32.9189L119.034 33.0811ZM119.358 29.7672C119.44 28.733 119.467 27.6986 119.44 26.6642L118.24 26.6958C118.266 27.688 118.24 28.6803 118.162 29.6728L119.358 29.7672ZM119.44 26.68C119.44 25.6299 119.413 24.5009 119.359 23.2934L118.161 23.3466C118.214 24.5391 118.24 25.6501 118.24 26.68H119.44ZM119.359 23.2934C119.306 22.0912 119.239 20.7426 119.159 19.2479L117.961 19.3121C118.041 20.804 118.107 22.1488 118.161 23.3466L119.359 23.2934ZM119.159 19.2485C119.079 17.7316 118.999 15.9742 118.92 13.976L117.72 14.024C117.801 16.0258 117.881 17.7884 117.961 19.3115L119.159 19.2485ZM118.462 14.5829L123.702 13.3029L123.418 12.1371L118.178 13.4171L118.462 14.5829ZM122.96 12.7398C123.04 15.1577 123.067 17.5755 123.04 19.9934L124.24 20.0066C124.267 17.5711 124.24 15.1357 124.16 12.7002L122.96 12.7398ZM123.04 19.9934C123.013 22.409 122.921 24.7437 122.761 26.9978L123.959 27.0822C124.119 24.8029 124.213 22.4444 124.24 20.0066L123.04 19.9934ZM122.762 26.9973C122.603 29.219 122.352 31.2774 122.01 33.1734L123.19 33.3866C123.541 31.4426 123.797 29.341 123.958 27.0827L122.762 26.9973ZM122.009 33.1774C121.566 35.7294 120.78 37.6944 119.685 39.1134L120.635 39.8466C121.886 38.2256 122.727 36.0573 123.191 33.3826L122.009 33.1774ZM119.681 39.1187C118.605 40.5449 117.266 41.5088 115.656 42.0291L116.024 43.1709C117.881 42.5712 119.422 41.4551 120.639 39.8413L119.681 39.1187ZM115.653 42.0299C114.05 42.5558 112.184 42.6895 110.039 42.4052L109.881 43.5948C112.163 43.8972 114.217 43.7642 116.027 43.1701L115.653 42.0299ZM110.033 42.4044C107.903 42.1447 105.576 41.5453 103.051 40.5982L102.629 41.7218C105.224 42.6947 107.644 43.322 109.887 43.5956L110.033 42.4044ZM110.6 31.84C109.214 31.84 108.129 31.4831 107.296 30.8127L106.544 31.7473C107.631 32.6236 109 33.04 110.6 33.04V31.84ZM107.304 30.8191C106.426 30.0876 105.719 29.1154 105.191 27.8836L104.089 28.3564C104.681 29.738 105.494 30.8724 106.536 31.7409L107.304 30.8191ZM105.196 27.8933C104.684 26.6413 104.323 25.2256 104.115 23.642L102.925 23.798C103.144 25.4677 103.529 26.9854 104.084 28.3467L105.196 27.8933ZM104.116 23.6516C103.933 22.0551 103.867 20.4175 103.92 18.7387L102.72 18.7013C102.666 20.4358 102.734 22.1316 102.924 23.7884L104.116 23.6516ZM103.92 18.7385C103.972 17.024 104.104 15.3916 104.315 13.8406L103.125 13.6794C102.909 15.2751 102.774 16.9493 102.72 18.7015L103.92 18.7385ZM103.737 14.3598L109.337 14.1998L109.303 13.0002L103.703 13.1602L103.737 14.3598ZM108.735 13.4688C108.384 15.034 108.114 16.5867 107.924 18.1269L109.116 18.2731C109.3 16.7733 109.563 15.2594 109.905 13.7312L108.735 13.4688ZM107.925 18.1256C107.735 19.6445 107.653 21.1001 107.68 22.4918L108.88 22.4682C108.854 21.1399 108.932 19.7421 109.115 18.2744L107.925 18.1256ZM107.68 22.4918C107.707 23.8828 107.844 25.1375 108.095 26.2517L109.265 25.9883C109.036 24.9692 108.906 23.7972 108.88 22.4682L107.68 22.4918ZM108.099 26.269C108.38 27.3662 108.799 28.2813 109.377 28.9821L110.303 28.2179C109.868 27.692 109.513 26.9538 109.261 25.971L108.099 26.269ZM109.377 28.9821C109.994 29.7289 110.802 30.12 111.76 30.12V28.92C111.171 28.92 110.699 28.6978 110.303 28.2179L109.377 28.9821ZM111.76 30.12C112.804 30.12 113.729 29.6074 114.526 28.7214L113.634 27.9186C112.991 28.6326 112.369 28.92 111.76 28.92V30.12ZM114.526 28.7214C115.304 27.8564 115.989 26.6993 116.593 25.2738L115.487 24.8062C114.917 26.1541 114.296 27.1836 113.634 27.9186L114.526 28.7214ZM116.594 25.27C117.199 23.8129 117.689 22.1339 118.068 20.2377L116.892 20.0023C116.524 21.8394 116.054 23.4404 115.486 24.81L116.594 25.27ZM118.067 20.244C118.473 18.321 118.757 16.2539 118.918 14.0438L117.722 13.9562C117.563 16.1194 117.287 18.1323 116.893 19.996L118.067 20.244ZM117.764 14.2243L119.844 19.3843L120.956 18.9357L118.876 13.7757L117.764 14.2243ZM119.801 19.1308C119.75 20.177 119.571 21.2957 119.259 22.4885L120.421 22.7915C120.749 21.5309 120.944 20.3297 120.999 19.1892L119.801 19.1308ZM119.26 22.4854C118.95 23.6481 118.523 24.8 117.979 25.9416L119.061 26.4584C119.637 25.2533 120.09 24.0319 120.42 22.7946L119.26 22.4854ZM117.974 25.9517C117.461 27.0797 116.835 28.0873 116.098 28.9772L117.022 29.7428C117.831 28.7661 118.512 27.6669 119.066 26.4483L117.974 25.9517ZM116.098 28.9772C115.37 29.8555 114.534 30.5528 113.59 31.0749L114.17 32.1251C115.252 31.5272 116.203 30.7312 117.022 29.7428L116.098 28.9772ZM113.584 31.0782C112.693 31.584 111.702 31.84 110.6 31.84V33.04C111.898 33.04 113.094 32.736 114.176 32.1218L113.584 31.0782Z" fill="#008020" mask="url(#path-7-outside-4_64001_1255)"/>
<mask id="path-9-outside-5_64001_1255" maskUnits="userSpaceOnUse" x="77" y="12" width="23" height="22" fill="black">
<rect fill="white" x="77" y="12" width="23" height="22"/>
<path d="M98.8 32.36L93.2 31.92C93.5467 30.3733 93.8133 28.8533 94 27.36C94.1867 25.8667 94.2667 24.4667 94.24 23.16C94.2133 21.8267 94.0667 20.6533 93.8 19.64C93.56 18.6 93.1867 17.7867 92.68 17.2C92.1733 16.6133 91.5333 16.32 90.76 16.32C89.9333 16.32 89.1467 16.7333 88.4 17.56C87.68 18.36 87.0133 19.48 86.4 20.92C85.7867 22.3333 85.2667 23.9867 84.84 25.88C84.44 27.7733 84.16 29.8133 84 32L81.84 26.84C81.8933 25.7467 82.08 24.5867 82.4 23.36C82.7467 22.1333 83.2 20.9333 83.76 19.76C84.3467 18.56 85.04 17.48 85.84 16.52C86.64 15.56 87.5467 14.8 88.56 14.24C89.6 13.6533 90.72 13.36 91.92 13.36C93.4133 13.36 94.64 13.7733 95.6 14.6C96.5867 15.4 97.3467 16.4667 97.88 17.8C98.44 19.1333 98.8133 20.6267 99 22.28C99.1867 23.9333 99.2533 25.64 99.2 27.4C99.1467 29.1333 99.0133 30.7867 98.8 32.36ZM84 32L78.64 32.44C79.0933 29.3467 79.3467 26.2933 79.4 23.28C79.4533 20.24 79.3333 17.2533 79.04 14.32L83.2 13.44C83.4667 15.2267 83.6667 16.8933 83.8 18.44C83.96 19.9867 84.0667 21.48 84.12 22.92C84.1733 24.3333 84.1867 25.7867 84.16 27.28C84.1333 28.7467 84.08 30.32 84 32Z"/>
</mask>
<path d="M98.8 32.36L93.2 31.92C93.5467 30.3733 93.8133 28.8533 94 27.36C94.1867 25.8667 94.2667 24.4667 94.24 23.16C94.2133 21.8267 94.0667 20.6533 93.8 19.64C93.56 18.6 93.1867 17.7867 92.68 17.2C92.1733 16.6133 91.5333 16.32 90.76 16.32C89.9333 16.32 89.1467 16.7333 88.4 17.56C87.68 18.36 87.0133 19.48 86.4 20.92C85.7867 22.3333 85.2667 23.9867 84.84 25.88C84.44 27.7733 84.16 29.8133 84 32L81.84 26.84C81.8933 25.7467 82.08 24.5867 82.4 23.36C82.7467 22.1333 83.2 20.9333 83.76 19.76C84.3467 18.56 85.04 17.48 85.84 16.52C86.64 15.56 87.5467 14.8 88.56 14.24C89.6 13.6533 90.72 13.36 91.92 13.36C93.4133 13.36 94.64 13.7733 95.6 14.6C96.5867 15.4 97.3467 16.4667 97.88 17.8C98.44 19.1333 98.8133 20.6267 99 22.28C99.1867 23.9333 99.2533 25.64 99.2 27.4C99.1467 29.1333 99.0133 30.7867 98.8 32.36ZM84 32L78.64 32.44C79.0933 29.3467 79.3467 26.2933 79.4 23.28C79.4533 20.24 79.3333 17.2533 79.04 14.32L83.2 13.44C83.4667 15.2267 83.6667 16.8933 83.8 18.44C83.96 19.9867 84.0667 21.48 84.12 22.92C84.1733 24.3333 84.1867 25.7867 84.16 27.28C84.1333 28.7467 84.08 30.32 84 32Z" fill="#92D051"/>
<path d="M98.8 32.36L98.753 32.9582L99.3184 33.0026L99.3946 32.4406L98.8 32.36ZM93.2 31.92L92.6145 31.7888L92.4632 32.464L93.153 32.5182L93.2 31.92ZM94.24 23.16L93.6401 23.172L93.6401 23.1722L94.24 23.16ZM93.8 19.64L93.2154 19.7749L93.2174 19.7838L93.2198 19.7927L93.8 19.64ZM92.68 17.2L92.2259 17.5922L92.2259 17.5922L92.68 17.2ZM88.4 17.56L87.9547 17.1578L87.954 17.1586L88.4 17.56ZM86.4 20.92L86.9504 21.1589L86.952 21.1551L86.4 20.92ZM84.84 25.88L84.2546 25.7481L84.253 25.756L84.84 25.88ZM84 32L83.4465 32.2317L84.5984 32.0438L84 32ZM81.84 26.84L81.2407 26.8108L81.2341 26.9464L81.2865 27.0717L81.84 26.84ZM82.4 23.36L81.8225 23.1968L81.8194 23.2085L82.4 23.36ZM83.76 19.76L83.2209 19.4965L83.2185 19.5016L83.76 19.76ZM85.84 16.52L85.3791 16.1359L85.3791 16.1359L85.84 16.52ZM88.56 14.24L88.8502 14.7652L88.8548 14.7626L88.56 14.24ZM95.6 14.6L95.2085 15.0547L95.2152 15.0605L95.2221 15.0661L95.6 14.6ZM97.88 17.8L97.3228 18.0229L97.3268 18.0323L97.88 17.8ZM99 22.28L99.5962 22.2127L99.5962 22.2127L99 22.28ZM99.2 27.4L99.7997 27.4185L99.7997 27.4182L99.2 27.4ZM84 32L84.0491 32.598L84.5743 32.5549L84.5993 32.0285L84 32ZM78.64 32.44L78.0463 32.353L77.9369 33.0997L78.6891 33.038L78.64 32.44ZM79.4 23.28L79.9999 23.2906L79.9999 23.2905L79.4 23.28ZM79.04 14.32L78.9158 13.733L78.3894 13.8443L78.443 14.3797L79.04 14.32ZM83.2 13.44L83.7934 13.3514L83.6993 12.7211L83.0758 12.853L83.2 13.44ZM83.8 18.44L83.2021 18.4915L83.2032 18.5017L83.8 18.44ZM84.12 22.92L83.5204 22.9422L83.5204 22.9426L84.12 22.92ZM84.16 27.28L84.7599 27.2909L84.7599 27.2907L84.16 27.28ZM98.847 31.7618L93.247 31.3218L93.153 32.5182L98.753 32.9582L98.847 31.7618ZM93.7855 32.0512C94.1361 30.4868 94.4062 28.9478 94.5954 27.4344L93.4046 27.2856C93.2205 28.7589 92.9572 30.2599 92.6145 31.7888L93.7855 32.0512ZM94.5954 27.4344C94.7851 25.9166 94.8672 24.4873 94.8399 23.1478L93.6401 23.1722C93.6661 24.446 93.5882 25.8168 93.4046 27.2856L94.5954 27.4344ZM94.8399 23.148C94.8125 21.7794 94.6618 20.5571 94.3802 19.4873L93.2198 19.7927C93.4716 20.7496 93.6142 21.874 93.6401 23.172L94.8399 23.148ZM94.3846 19.5051C94.1305 18.404 93.724 17.4909 93.1341 16.8078L92.2259 17.5922C92.6493 18.0824 92.9895 18.796 93.2154 19.7749L94.3846 19.5051ZM93.1341 16.8078C92.5138 16.0896 91.7082 15.72 90.76 15.72V16.92C91.3585 16.92 91.8329 17.1371 92.2259 17.5922L93.1341 16.8078ZM90.76 15.72C89.7104 15.72 88.7738 16.251 87.9547 17.1578L88.8453 17.9622C89.5195 17.2157 90.1563 16.92 90.76 16.92V15.72ZM87.954 17.1586C87.1746 18.0247 86.4766 19.2091 85.848 20.6849L86.952 21.1551C87.5501 19.7509 88.1854 18.6953 88.846 17.9614L87.954 17.1586ZM85.8496 20.6811C85.218 22.1365 84.6876 23.8271 84.2547 25.7481L85.4253 26.0119C85.8457 24.1463 86.3553 22.5302 86.9504 21.1589L85.8496 20.6811ZM84.253 25.756C83.8467 27.679 83.5633 29.7461 83.4016 31.9562L84.5984 32.0438C84.7567 29.8806 85.0333 27.8677 85.427 26.004L84.253 25.756ZM84.5535 31.7683L82.3935 26.6083L81.2865 27.0717L83.4465 32.2317L84.5535 31.7683ZM82.4393 26.8692C82.4903 25.823 82.6694 24.7043 82.9806 23.5115L81.8194 23.2085C81.4906 24.4691 81.2963 25.6703 81.2407 26.8108L82.4393 26.8692ZM82.9774 23.5232C83.3146 22.3299 83.7558 21.1617 84.3015 20.0184L83.2185 19.5016C82.6442 20.705 82.1787 21.9368 81.8226 23.1968L82.9774 23.5232ZM84.299 20.0235C84.866 18.8637 85.5337 17.8247 86.3009 16.9041L85.3791 16.1359C84.5463 17.1353 83.8273 18.2563 83.221 19.4965L84.299 20.0235ZM86.3009 16.9041C87.0571 15.9967 87.9071 15.2864 88.8502 14.7651L88.2698 13.7149C87.1863 14.3136 86.2229 15.1233 85.3791 16.1359L86.3009 16.9041ZM88.8548 14.7626C89.8044 14.2269 90.8228 13.96 91.92 13.96V12.76C90.6173 12.76 89.3956 13.0797 88.2652 13.7174L88.8548 14.7626ZM91.92 13.96C93.2967 13.96 94.3763 14.338 95.2085 15.0547L95.9915 14.1453C94.9037 13.2086 93.53 12.76 91.92 12.76V13.96ZM95.2221 15.0661C96.1194 15.7935 96.8226 16.7719 97.3229 18.0228L98.4371 17.5772C97.8708 16.1614 97.054 15.0064 95.9779 14.1339L95.2221 15.0661ZM97.3268 18.0323C97.8617 19.3058 98.2226 20.7424 98.4038 22.3473L99.5962 22.2127C99.4041 20.5109 99.0184 18.9609 98.4332 17.5677L97.3268 18.0323ZM98.4038 22.3473C98.5871 23.9707 98.6528 25.6487 98.6003 27.3818L99.7997 27.4182C99.8539 25.6313 99.7863 23.896 99.5962 22.2127L98.4038 22.3473ZM98.6003 27.3815C98.5475 29.096 98.4157 30.7284 98.2054 32.2794L99.3946 32.4406C99.6109 30.8449 99.7458 29.1707 99.7997 27.4185L98.6003 27.3815ZM83.9509 31.402L78.5909 31.842L78.6891 33.038L84.0491 32.598L83.9509 31.402ZM79.2337 32.527C79.6906 29.4093 79.9461 26.3305 79.9999 23.2906L78.8001 23.2694C78.7472 26.2562 78.4961 29.284 78.0463 32.353L79.2337 32.527ZM79.9999 23.2905C80.0536 20.2278 79.9328 17.2177 79.637 14.2603L78.443 14.3797C78.7339 17.289 78.853 20.2522 78.8001 23.2695L79.9999 23.2905ZM79.1642 14.907L83.3242 14.027L83.0758 12.853L78.9158 13.733L79.1642 14.907ZM82.6066 13.5286C82.8717 15.3049 83.0701 16.9591 83.2022 18.4915L84.3978 18.3885C84.2632 16.8276 84.0616 15.1485 83.7934 13.3514L82.6066 13.5286ZM83.2032 18.5017C83.3619 20.0363 83.4676 21.5164 83.5204 22.9422L84.7196 22.8978C84.6657 21.4436 84.5581 19.9371 84.3968 18.3783L83.2032 18.5017ZM83.5204 22.9426C83.5733 24.3443 83.5866 25.7865 83.5601 27.2693L84.7599 27.2907C84.7868 25.7869 84.7733 24.3224 84.7196 22.8974L83.5204 22.9426ZM83.5601 27.2691C83.5336 28.7291 83.4804 30.2965 83.4007 31.9715L84.5993 32.0285C84.6796 30.3435 84.7331 28.7642 84.7599 27.2909L83.5601 27.2691Z" fill="#518811" mask="url(#path-9-outside-5_64001_1255)"/>
<mask id="path-11-outside-6_64001_1255" maskUnits="userSpaceOnUse" x="52" y="12" width="23" height="22" fill="black">
<rect fill="white" x="52" y="12" width="23" height="22"/>
<path d="M73.8 32.36L68.2 31.92C68.5467 30.3733 68.8133 28.8533 69 27.36C69.1867 25.8667 69.2667 24.4667 69.24 23.16C69.2133 21.8267 69.0667 20.6533 68.8 19.64C68.56 18.6 68.1867 17.7867 67.68 17.2C67.1733 16.6133 66.5333 16.32 65.76 16.32C64.9333 16.32 64.1467 16.7333 63.4 17.56C62.68 18.36 62.0133 19.48 61.4 20.92C60.7867 22.3333 60.2667 23.9867 59.84 25.88C59.44 27.7733 59.16 29.8133 59 32L56.84 26.84C56.8933 25.7467 57.08 24.5867 57.4 23.36C57.7467 22.1333 58.2 20.9333 58.76 19.76C59.3467 18.56 60.04 17.48 60.84 16.52C61.64 15.56 62.5467 14.8 63.56 14.24C64.6 13.6533 65.72 13.36 66.92 13.36C68.4133 13.36 69.64 13.7733 70.6 14.6C71.5867 15.4 72.3467 16.4667 72.88 17.8C73.44 19.1333 73.8133 20.6267 74 22.28C74.1867 23.9333 74.2533 25.64 74.2 27.4C74.1467 29.1333 74.0133 30.7867 73.8 32.36ZM59 32L53.64 32.44C54.0933 29.3467 54.3467 26.2933 54.4 23.28C54.4533 20.24 54.3333 17.2533 54.04 14.32L58.2 13.44C58.4667 15.2267 58.6667 16.8933 58.8 18.44C58.96 19.9867 59.0667 21.48 59.12 22.92C59.1733 24.3333 59.1867 25.7867 59.16 27.28C59.1333 28.7467 59.08 30.32 59 32Z"/>
</mask>
<path d="M73.8 32.36L68.2 31.92C68.5467 30.3733 68.8133 28.8533 69 27.36C69.1867 25.8667 69.2667 24.4667 69.24 23.16C69.2133 21.8267 69.0667 20.6533 68.8 19.64C68.56 18.6 68.1867 17.7867 67.68 17.2C67.1733 16.6133 66.5333 16.32 65.76 16.32C64.9333 16.32 64.1467 16.7333 63.4 17.56C62.68 18.36 62.0133 19.48 61.4 20.92C60.7867 22.3333 60.2667 23.9867 59.84 25.88C59.44 27.7733 59.16 29.8133 59 32L56.84 26.84C56.8933 25.7467 57.08 24.5867 57.4 23.36C57.7467 22.1333 58.2 20.9333 58.76 19.76C59.3467 18.56 60.04 17.48 60.84 16.52C61.64 15.56 62.5467 14.8 63.56 14.24C64.6 13.6533 65.72 13.36 66.92 13.36C68.4133 13.36 69.64 13.7733 70.6 14.6C71.5867 15.4 72.3467 16.4667 72.88 17.8C73.44 19.1333 73.8133 20.6267 74 22.28C74.1867 23.9333 74.2533 25.64 74.2 27.4C74.1467 29.1333 74.0133 30.7867 73.8 32.36ZM59 32L53.64 32.44C54.0933 29.3467 54.3467 26.2933 54.4 23.28C54.4533 20.24 54.3333 17.2533 54.04 14.32L58.2 13.44C58.4667 15.2267 58.6667 16.8933 58.8 18.44C58.96 19.9867 59.0667 21.48 59.12 22.92C59.1733 24.3333 59.1867 25.7867 59.16 27.28C59.1333 28.7467 59.08 30.32 59 32Z" fill="#FFF201"/>
<path d="M73.8 32.36L73.753 32.9582L74.3184 33.0026L74.3946 32.4406L73.8 32.36ZM68.2 31.92L67.6145 31.7888L67.4632 32.464L68.153 32.5182L68.2 31.92ZM69.24 23.16L68.6401 23.172L68.6401 23.1722L69.24 23.16ZM68.8 19.64L68.2154 19.7749L68.2174 19.7838L68.2198 19.7927L68.8 19.64ZM67.68 17.2L67.2259 17.5922L67.2259 17.5922L67.68 17.2ZM63.4 17.56L62.9547 17.1578L62.954 17.1586L63.4 17.56ZM61.4 20.92L61.9504 21.1589L61.952 21.1551L61.4 20.92ZM59.84 25.88L59.2546 25.7481L59.253 25.756L59.84 25.88ZM59 32L58.4465 32.2317L59.5984 32.0438L59 32ZM56.84 26.84L56.2407 26.8108L56.2341 26.9464L56.2865 27.0717L56.84 26.84ZM57.4 23.36L56.8225 23.1968L56.8194 23.2085L57.4 23.36ZM58.76 19.76L58.2209 19.4965L58.2185 19.5016L58.76 19.76ZM60.84 16.52L60.3791 16.1359L60.3791 16.1359L60.84 16.52ZM63.56 14.24L63.8502 14.7652L63.8548 14.7626L63.56 14.24ZM70.6 14.6L70.2085 15.0547L70.2152 15.0605L70.2221 15.0661L70.6 14.6ZM72.88 17.8L72.3228 18.0229L72.3268 18.0323L72.88 17.8ZM74 22.28L74.5962 22.2127L74.5962 22.2127L74 22.28ZM74.2 27.4L74.7997 27.4185L74.7997 27.4182L74.2 27.4ZM59 32L59.0491 32.598L59.5743 32.5549L59.5993 32.0285L59 32ZM53.64 32.44L53.0463 32.353L52.9369 33.0997L53.6891 33.038L53.64 32.44ZM54.4 23.28L54.9999 23.2906L54.9999 23.2905L54.4 23.28ZM54.04 14.32L53.9158 13.733L53.3894 13.8443L53.443 14.3797L54.04 14.32ZM58.2 13.44L58.7934 13.3514L58.6993 12.7211L58.0758 12.853L58.2 13.44ZM58.8 18.44L58.2021 18.4915L58.2032 18.5017L58.8 18.44ZM59.12 22.92L58.5204 22.9422L58.5204 22.9426L59.12 22.92ZM59.16 27.28L59.7599 27.2909L59.7599 27.2907L59.16 27.28ZM73.847 31.7618L68.247 31.3218L68.153 32.5182L73.753 32.9582L73.847 31.7618ZM68.7855 32.0512C69.1361 30.4868 69.4062 28.9478 69.5954 27.4344L68.4046 27.2856C68.2205 28.7589 67.9572 30.2599 67.6145 31.7888L68.7855 32.0512ZM69.5954 27.4344C69.7851 25.9166 69.8672 24.4873 69.8399 23.1478L68.6401 23.1722C68.6661 24.446 68.5882 25.8168 68.4046 27.2856L69.5954 27.4344ZM69.8399 23.148C69.8125 21.7794 69.6618 20.5571 69.3802 19.4873L68.2198 19.7927C68.4716 20.7496 68.6142 21.874 68.6401 23.172L69.8399 23.148ZM69.3846 19.5051C69.1305 18.404 68.724 17.4909 68.1341 16.8078L67.2259 17.5922C67.6493 18.0824 67.9895 18.796 68.2154 19.7749L69.3846 19.5051ZM68.1341 16.8078C67.5138 16.0896 66.7082 15.72 65.76 15.72V16.92C66.3585 16.92 66.8329 17.1371 67.2259 17.5922L68.1341 16.8078ZM65.76 15.72C64.7104 15.72 63.7738 16.251 62.9547 17.1578L63.8453 17.9622C64.5195 17.2157 65.1563 16.92 65.76 16.92V15.72ZM62.954 17.1586C62.1746 18.0247 61.4766 19.2091 60.848 20.6849L61.952 21.1551C62.5501 19.7509 63.1854 18.6953 63.846 17.9614L62.954 17.1586ZM60.8496 20.6811C60.218 22.1365 59.6876 23.8271 59.2547 25.7481L60.4253 26.0119C60.8457 24.1463 61.3553 22.5302 61.9504 21.1589L60.8496 20.6811ZM59.253 25.756C58.8467 27.679 58.5633 29.7461 58.4016 31.9562L59.5984 32.0438C59.7567 29.8806 60.0333 27.8677 60.427 26.004L59.253 25.756ZM59.5535 31.7683L57.3935 26.6083L56.2865 27.0717L58.4465 32.2317L59.5535 31.7683ZM57.4393 26.8692C57.4903 25.823 57.6694 24.7043 57.9806 23.5115L56.8194 23.2085C56.4906 24.4691 56.2963 25.6703 56.2407 26.8108L57.4393 26.8692ZM57.9774 23.5232C58.3146 22.3299 58.7558 21.1617 59.3015 20.0184L58.2185 19.5016C57.6442 20.705 57.1787 21.9368 56.8226 23.1968L57.9774 23.5232ZM59.299 20.0235C59.866 18.8637 60.5337 17.8247 61.3009 16.9041L60.3791 16.1359C59.5463 17.1353 58.8273 18.2563 58.221 19.4965L59.299 20.0235ZM61.3009 16.9041C62.0571 15.9967 62.9071 15.2864 63.8502 14.7651L63.2698 13.7149C62.1863 14.3136 61.2229 15.1233 60.3791 16.1359L61.3009 16.9041ZM63.8548 14.7626C64.8044 14.2269 65.8228 13.96 66.92 13.96V12.76C65.6173 12.76 64.3956 13.0797 63.2652 13.7174L63.8548 14.7626ZM66.92 13.96C68.2967 13.96 69.3763 14.338 70.2085 15.0547L70.9915 14.1453C69.9037 13.2086 68.53 12.76 66.92 12.76V13.96ZM70.2221 15.0661C71.1194 15.7935 71.8226 16.7719 72.3229 18.0228L73.4371 17.5772C72.8708 16.1614 72.054 15.0064 70.9779 14.1339L70.2221 15.0661ZM72.3268 18.0323C72.8617 19.3058 73.2226 20.7424 73.4038 22.3473L74.5962 22.2127C74.4041 20.5109 74.0184 18.9609 73.4332 17.5677L72.3268 18.0323ZM73.4038 22.3473C73.5871 23.9707 73.6528 25.6487 73.6003 27.3818L74.7997 27.4182C74.8539 25.6313 74.7863 23.896 74.5962 22.2127L73.4038 22.3473ZM73.6003 27.3815C73.5475 29.096 73.4157 30.7284 73.2054 32.2794L74.3946 32.4406C74.6109 30.8449 74.7458 29.1707 74.7997 27.4185L73.6003 27.3815ZM58.9509 31.402L53.5909 31.842L53.6891 33.038L59.0491 32.598L58.9509 31.402ZM54.2337 32.527C54.6906 29.4093 54.9461 26.3305 54.9999 23.2906L53.8001 23.2694C53.7472 26.2562 53.4961 29.284 53.0463 32.353L54.2337 32.527ZM54.9999 23.2905C55.0536 20.2278 54.9328 17.2177 54.637 14.2603L53.443 14.3797C53.7339 17.289 53.853 20.2522 53.8001 23.2695L54.9999 23.2905ZM54.1642 14.907L58.3242 14.027L58.0758 12.853L53.9158 13.733L54.1642 14.907ZM57.6066 13.5286C57.8717 15.3049 58.0701 16.9591 58.2022 18.4915L59.3978 18.3885C59.2632 16.8276 59.0616 15.1485 58.7934 13.3514L57.6066 13.5286ZM58.2032 18.5017C58.3619 20.0363 58.4676 21.5164 58.5204 22.9422L59.7196 22.8978C59.6657 21.4436 59.5581 19.9371 59.3968 18.3783L58.2032 18.5017ZM58.5204 22.9426C58.5733 24.3443 58.5866 25.7865 58.5601 27.2693L59.7599 27.2907C59.7868 25.7869 59.7733 24.3224 59.7196 22.8974L58.5204 22.9426ZM58.5601 27.2691C58.5336 28.7291 58.4804 30.2965 58.4007 31.9715L59.5993 32.0285C59.6796 30.3435 59.7331 28.7642 59.7599 27.2909L58.5601 27.2691Z" fill="#A8A000" mask="url(#path-11-outside-6_64001_1255)"/>
<path d="M41 32.48C38.92 32.48 37.1867 32.0267 35.8 31.12C34.4133 30.2133 33.3733 29.04 32.68 27.6C31.9867 26.16 31.64 24.6533 31.64 23.08C31.64 21.48 31.9867 19.9467 32.68 18.48C33.3733 17.0133 34.4133 15.8133 35.8 14.88C37.1867 13.9467 38.8933 13.48 40.92 13.48C43.1067 13.48 44.92 13.9467 46.36 14.88C47.8 15.7867 48.88 16.96 49.6 18.4C50.3467 19.84 50.72 21.36 50.72 22.96C50.72 24.5333 50.3467 26.0533 49.6 27.52C48.88 28.9867 47.8 30.1867 46.36 31.12C44.9467 32.0267 43.16 32.48 41 32.48ZM41.08 29.92C42.2 29.92 43.0933 29.6133 43.76 29C44.4267 28.36 44.9067 27.56 45.2 26.6C45.52 25.6133 45.68 24.5867 45.68 23.52C45.68 22.56 45.4933 21.6533 45.12 20.8C44.7733 19.9467 44.2533 19.2533 43.56 18.72C42.8933 18.16 42.04 17.88 41 17.88C40.04 17.88 39.2133 18.16 38.52 18.72C37.8267 19.28 37.2933 20 36.92 20.88C36.5733 21.7333 36.4 22.64 36.4 23.6C36.4 24.72 36.6 25.7733 37 26.76C37.4 27.72 37.9467 28.4933 38.64 29.08C39.36 29.64 40.1733 29.92 41.08 29.92Z" fill="#FFA600"/>
<path d="M35.8 31.12L35.9642 30.8689L35.9642 30.8689L35.8 31.12ZM32.68 27.6L32.9503 27.4699L32.9503 27.4699L32.68 27.6ZM32.68 18.48L32.4088 18.3518L32.4088 18.3518L32.68 18.48ZM35.8 14.88L35.6325 14.6311L35.6325 14.6311L35.8 14.88ZM46.36 14.88L46.1968 15.1318L46.2002 15.1339L46.36 14.88ZM49.6 18.4L49.3316 18.5342L49.3337 18.5381L49.6 18.4ZM49.6 27.52L49.3326 27.3839L49.3307 27.3878L49.6 27.52ZM46.36 31.12L46.522 31.3725L46.5232 31.3717L46.36 31.12ZM43.76 29L43.9632 29.2208L43.9678 29.2164L43.76 29ZM45.2 26.6L44.9146 26.5074L44.9131 26.5123L45.2 26.6ZM45.12 20.8L44.842 20.913L44.8452 20.9202L45.12 20.8ZM43.56 18.72L43.3669 18.9499L43.3771 18.9578L43.56 18.72ZM38.52 18.72L38.7085 18.9534L38.7085 18.9534L38.52 18.72ZM36.92 20.88L36.6438 20.7628L36.6421 20.7671L36.92 20.88ZM37 26.76L36.722 26.8727L36.7231 26.8754L37 26.76ZM38.64 29.08L38.4461 29.3092L38.4558 29.3168L38.64 29.08ZM41 32.18C38.9634 32.18 37.2909 31.7364 35.9642 30.8689L35.6358 31.3711C37.0824 32.3169 38.8766 32.78 41 32.78V32.18ZM35.9642 30.8689C34.6215 29.991 33.619 28.8588 32.9503 27.4699L32.4097 27.7301C33.1276 29.2212 34.2052 30.4357 35.6358 31.3711L35.9642 30.8689ZM32.9503 27.4699C32.2762 26.0698 31.94 24.6075 31.94 23.08H31.34C31.34 24.6991 31.6971 26.2502 32.4097 27.7301L32.9503 27.4699ZM31.94 23.08C31.94 21.525 32.2766 20.0354 32.9512 18.6082L32.4088 18.3518C31.6968 19.858 31.34 21.435 31.34 23.08H31.94ZM32.9512 18.6082C33.6208 17.1919 34.6242 16.033 35.9675 15.1289L35.6325 14.6311C34.2024 15.5937 33.1259 16.8348 32.4088 18.3518L32.9512 18.6082ZM35.9675 15.1289C37.295 14.2354 38.9402 13.78 40.92 13.78V13.18C38.8465 13.18 37.0783 13.658 35.6325 14.6311L35.9675 15.1289ZM40.92 13.78C43.0645 13.78 44.8171 14.2375 46.1968 15.1317L46.5232 14.6283C45.0229 13.6558 43.1488 13.18 40.92 13.18V13.78ZM46.2002 15.1339C47.5965 16.013 48.6376 17.1461 49.3317 18.5342L49.8683 18.2658C49.1224 16.7739 48.0035 15.5603 46.5198 14.6261L46.2002 15.1339ZM49.3337 18.5381C50.0585 19.936 50.42 21.4087 50.42 22.96H51.02C51.02 21.3112 50.6348 19.744 49.8663 18.2619L49.3337 18.5381ZM50.42 22.96C50.42 24.4838 50.0589 25.9574 49.3327 27.3839L49.8673 27.6561C50.6345 26.1493 51.02 24.5828 51.02 22.96H50.42ZM49.3307 27.3878C48.6358 28.8033 47.5937 29.9629 46.1968 30.8683L46.5232 31.3717C48.0063 30.4104 49.1242 29.1701 49.8693 27.6522L49.3307 27.3878ZM46.198 30.8675C44.8451 31.7354 43.1188 32.18 41 32.18V32.78C43.2012 32.78 45.0482 32.3179 46.522 31.3725L46.198 30.8675ZM41.08 30.22C42.2566 30.22 43.2287 29.8964 43.9631 29.2208L43.5569 28.7792C42.9579 29.3303 42.1434 29.62 41.08 29.62V30.22ZM43.9678 29.2164C44.6745 28.5379 45.1799 27.6923 45.4869 26.6877L44.9131 26.5123C44.6334 27.4277 44.1788 28.1821 43.5522 28.7836L43.9678 29.2164ZM45.4854 26.6926C45.8153 25.6751 45.98 24.6172 45.98 23.52H45.38C45.38 24.5561 45.2247 25.5515 44.9146 26.5074L45.4854 26.6926ZM45.98 23.52C45.98 22.5199 45.7853 21.5722 45.3948 20.6798L44.8452 20.9202C45.2014 21.7345 45.38 22.6001 45.38 23.52H45.98ZM45.3979 20.6871C45.0323 19.7872 44.4807 19.0497 43.7429 18.4822L43.3771 18.9578C44.026 19.4569 44.5143 20.1062 44.8421 20.9129L45.3979 20.6871ZM43.753 18.4903C43.0222 17.8764 42.0962 17.58 41 17.58V18.18C41.9838 18.18 42.7645 18.4436 43.367 18.9497L43.753 18.4903ZM41 17.58C39.9771 17.58 39.0825 17.8801 38.3315 18.4866L38.7085 18.9534C39.3442 18.4399 40.1029 18.18 41 18.18V17.58ZM38.3315 18.4866C37.5971 19.0798 37.035 19.8409 36.6438 20.7628L37.1962 20.9972C37.5517 20.1591 38.0563 19.4802 38.7085 18.9534L38.3315 18.4866ZM36.6421 20.7671C36.2802 21.6578 36.1 22.603 36.1 23.6H36.7C36.7 22.677 36.8665 21.8089 37.1979 20.9929L36.6421 20.7671ZM36.1 23.6C36.1 24.7566 36.3067 25.8484 36.722 26.8727L37.278 26.6473C36.8933 25.6983 36.7 24.6834 36.7 23.6H36.1ZM36.7231 26.8754C37.1387 27.8729 37.7116 28.6874 38.4462 29.309L38.8338 28.851C38.1817 28.2993 37.6613 27.5671 37.2769 26.6446L36.7231 26.8754ZM38.4558 29.3168C39.2281 29.9175 40.1062 30.22 41.08 30.22V29.62C40.2405 29.62 39.4919 29.3625 38.8242 28.8432L38.4558 29.3168Z" fill="#AD7100"/>
<mask id="path-15-outside-7_64001_1255" maskUnits="userSpaceOnUse" x="2" y="-1" width="27" height="34" fill="black">
<rect fill="white" x="2" y="-1" width="27" height="34"/>
<path d="M8.84 19.76L7.56 17.4C10.1733 16.6533 12.32 15.92 14 15.2C15.7067 14.4533 17.04 13.6933 18 12.92C18.9867 12.12 19.68 11.3333 20.08 10.56C20.48 9.78667 20.68 9 20.68 8.2C20.68 7.34667 20.3467 6.62667 19.68 6.04C19.0133 5.42666 18.12 5.12 17 5.12C16.0667 5.12 15.04 5.32 13.92 5.72C12.8 6.12 11.7467 6.77333 10.76 7.68C9.8 8.56 9.05333 9.73333 8.52 11.2L7.6 8.68C8.10667 7.29333 8.78667 6.08 9.64 5.04C10.52 4 11.4933 3.13333 12.56 2.44C13.6267 1.74667 14.7067 1.22666 15.8 0.879998C16.92 0.533332 17.9867 0.36 19 0.36C21.16 0.36 22.7733 0.959999 23.84 2.16C24.9333 3.36 25.48 4.92 25.48 6.84C25.48 8.70667 24.9333 10.4533 23.84 12.08C22.7733 13.68 21.0267 15.12 18.6 16.4C16.1733 17.68 12.92 18.8 8.84 19.76ZM4.28 32.2C4.36 29.5067 4.4 26.88 4.4 24.32C4.42667 21.7333 4.4 19.2133 4.32 16.76C4.26667 14.3067 4.14667 11.92 3.96 9.6C3.8 7.28 3.58667 5.02667 3.32 2.84L9.4 1.88C9.48 4.25333 9.54667 6.48 9.6 8.56C9.65333 10.64 9.68 12.6267 9.68 14.52C9.68 16.4133 9.66667 18.2933 9.64 20.16C9.61333 22.0267 9.54667 23.92 9.44 25.84C9.36 27.76 9.26667 29.8133 9.16 32L4.28 32.2ZM9.16 32L7.24 29C9.98667 29 12.3333 28.8133 14.28 28.44C16.2267 28.0667 17.8133 27.56 19.04 26.92C20.2667 26.28 21.16 25.5733 21.72 24.8C22.28 24 22.56 23.1867 22.56 22.36C22.56 21.2133 22.24 20.3467 21.6 19.76C20.96 19.1733 20.12 18.8 19.08 18.64C18.04 18.48 16.8933 18.4667 15.64 18.6C14.4133 18.7333 13.1867 18.96 11.96 19.28C10.76 19.5733 9.68 19.88 8.72 20.2L8.88 18.36C10.48 17.4267 12.16 16.68 13.92 16.12C15.68 15.56 17.4 15.2267 19.08 15.12C20.76 14.9867 22.28 15.1067 23.64 15.48C25 15.8533 26.08 16.52 26.88 17.48C27.7067 18.4133 28.12 19.68 28.12 21.28C28.12 23.2533 27.4667 25.0267 26.16 26.6C24.8533 28.1733 22.8 29.44 20 30.4C17.2267 31.36 13.6133 31.8933 9.16 32Z"/>
</mask>
<path d="M8.84 19.76L7.56 17.4C10.1733 16.6533 12.32 15.92 14 15.2C15.7067 14.4533 17.04 13.6933 18 12.92C18.9867 12.12 19.68 11.3333 20.08 10.56C20.48 9.78667 20.68 9 20.68 8.2C20.68 7.34667 20.3467 6.62667 19.68 6.04C19.0133 5.42666 18.12 5.12 17 5.12C16.0667 5.12 15.04 5.32 13.92 5.72C12.8 6.12 11.7467 6.77333 10.76 7.68C9.8 8.56 9.05333 9.73333 8.52 11.2L7.6 8.68C8.10667 7.29333 8.78667 6.08 9.64 5.04C10.52 4 11.4933 3.13333 12.56 2.44C13.6267 1.74667 14.7067 1.22666 15.8 0.879998C16.92 0.533332 17.9867 0.36 19 0.36C21.16 0.36 22.7733 0.959999 23.84 2.16C24.9333 3.36 25.48 4.92 25.48 6.84C25.48 8.70667 24.9333 10.4533 23.84 12.08C22.7733 13.68 21.0267 15.12 18.6 16.4C16.1733 17.68 12.92 18.8 8.84 19.76ZM4.28 32.2C4.36 29.5067 4.4 26.88 4.4 24.32C4.42667 21.7333 4.4 19.2133 4.32 16.76C4.26667 14.3067 4.14667 11.92 3.96 9.6C3.8 7.28 3.58667 5.02667 3.32 2.84L9.4 1.88C9.48 4.25333 9.54667 6.48 9.6 8.56C9.65333 10.64 9.68 12.6267 9.68 14.52C9.68 16.4133 9.66667 18.2933 9.64 20.16C9.61333 22.0267 9.54667 23.92 9.44 25.84C9.36 27.76 9.26667 29.8133 9.16 32L4.28 32.2ZM9.16 32L7.24 29C9.98667 29 12.3333 28.8133 14.28 28.44C16.2267 28.0667 17.8133 27.56 19.04 26.92C20.2667 26.28 21.16 25.5733 21.72 24.8C22.28 24 22.56 23.1867 22.56 22.36C22.56 21.2133 22.24 20.3467 21.6 19.76C20.96 19.1733 20.12 18.8 19.08 18.64C18.04 18.48 16.8933 18.4667 15.64 18.6C14.4133 18.7333 13.1867 18.96 11.96 19.28C10.76 19.5733 9.68 19.88 8.72 20.2L8.88 18.36C10.48 17.4267 12.16 16.68 13.92 16.12C15.68 15.56 17.4 15.2267 19.08 15.12C20.76 14.9867 22.28 15.1067 23.64 15.48C25 15.8533 26.08 16.52 26.88 17.48C27.7067 18.4133 28.12 19.68 28.12 21.28C28.12 23.2533 27.4667 25.0267 26.16 26.6C24.8533 28.1733 22.8 29.44 20 30.4C17.2267 31.36 13.6133 31.8933 9.16 32Z" fill="#FE0000"/>
<path d="M8.84 19.76L8.31258 20.0461L8.53116 20.4491L8.97742 20.344L8.84 19.76ZM7.56 17.4L7.39517 16.8231L6.67598 17.0286L7.03258 17.6861L7.56 17.4ZM14 15.2L14.2364 15.7515L14.2405 15.7497L14 15.2ZM18 12.92L18.3764 13.3873L18.3779 13.3861L18 12.92ZM20.08 10.56L20.6129 10.8357L20.6129 10.8357L20.08 10.56ZM19.68 6.04L19.2737 6.48166L19.2836 6.49043L19.68 6.04ZM13.92 5.72L14.1218 6.28505L14.1218 6.28504L13.92 5.72ZM10.76 7.68L11.1654 8.12229L11.166 8.1218L10.76 7.68ZM8.52 11.2L7.95639 11.4058L8.52112 12.9526L9.08388 11.405L8.52 11.2ZM7.6 8.68L7.03644 8.47408L6.96123 8.67991L7.03639 8.88576L7.6 8.68ZM9.64 5.04L9.18192 4.65239L9.17616 4.65941L9.64 5.04ZM12.56 2.44L12.887 2.94307L12.887 2.94307L12.56 2.44ZM15.8 0.879998L15.6226 0.306812L15.6187 0.308059L15.8 0.879998ZM23.84 2.16L23.3915 2.55865L23.3965 2.56409L23.84 2.16ZM23.84 12.08L23.342 11.7453L23.3408 11.7472L23.84 12.08ZM4.28 32.2L3.68026 32.1822L3.66115 32.8259L4.30457 32.7995L4.28 32.2ZM4.4 24.32L3.8 24.3138V24.32H4.4ZM4.32 16.76L3.72011 16.773L3.72032 16.7796L4.32 16.76ZM3.96 9.6L3.36138 9.64128L3.36193 9.64812L3.96 9.6ZM3.32 2.84L3.22642 2.24734L2.6543 2.33768L2.72441 2.91263L3.32 2.84ZM9.4 1.88L9.99966 1.85979L9.9768 1.18149L9.30642 1.28734L9.4 1.88ZM9.64 20.16L10.2399 20.1686L9.64 20.16ZM9.44 25.84L8.84087 25.8067L8.84052 25.815L9.44 25.84ZM9.16 32L9.18457 32.5995L9.73257 32.577L9.75929 32.0292L9.16 32ZM9.16 32L8.65464 32.3234L8.83671 32.6079L9.17437 32.5998L9.16 32ZM7.24 29V28.4H6.14364L6.73464 29.3234L7.24 29ZM14.28 28.44L14.393 29.0293L14.393 29.0293L14.28 28.44ZM19.04 26.92L19.3175 27.452L19.3175 27.452L19.04 26.92ZM21.72 24.8L22.206 25.152L22.2115 25.1441L21.72 24.8ZM21.6 19.76L22.0054 19.3177L22.0054 19.3177L21.6 19.76ZM19.08 18.64L19.1712 18.047L19.1712 18.047L19.08 18.64ZM15.64 18.6L15.5765 18.0034L15.5752 18.0035L15.64 18.6ZM11.96 19.28L12.1025 19.8629L12.1115 19.8606L11.96 19.28ZM8.72 20.2L8.12226 20.148L8.04312 21.0581L8.90974 20.7692L8.72 20.2ZM8.88 18.36L8.57768 17.8417L8.30918 17.9984L8.28226 18.308L8.88 18.36ZM19.08 15.12L19.118 15.7189L19.1275 15.7181L19.08 15.12ZM26.88 17.48L26.4191 17.8641L26.4249 17.8711L26.4308 17.8778L26.88 17.48ZM26.16 26.6L26.6216 26.9833L26.6216 26.9833L26.16 26.6ZM20 30.4L19.8054 29.8324L19.8037 29.833L20 30.4ZM9.36742 19.4739L8.08742 17.1139L7.03258 17.6861L8.31258 20.0461L9.36742 19.4739ZM7.72483 17.9769C10.352 17.2263 12.5248 16.485 14.2364 15.7515L13.7636 14.6485C12.1152 15.355 9.99465 16.0804 7.39517 16.8231L7.72483 17.9769ZM14.2405 15.7497C15.9738 14.9914 17.3596 14.2063 18.3764 13.3873L17.6236 12.4527C16.7204 13.1803 15.4396 13.9153 13.7595 14.6503L14.2405 15.7497ZM18.3779 13.3861C19.4017 12.5559 20.1617 11.7081 20.6129 10.8357L19.5471 10.2843C19.1983 10.9585 18.5716 11.6841 17.6221 12.4539L18.3779 13.3861ZM20.6129 10.8357C21.053 9.9848 21.28 9.10422 21.28 8.2H20.08C20.08 8.89578 19.907 9.58853 19.5471 10.2843L20.6129 10.8357ZM21.28 8.2C21.28 7.16641 20.8665 6.28487 20.0764 5.58957L19.2836 6.49043C19.8268 6.96846 20.08 7.52692 20.08 8.2H21.28ZM20.0862 5.59844C19.2842 4.86054 18.2333 4.52 17 4.52V5.72C18.0067 5.72 18.7425 5.99279 19.2738 6.48156L20.0862 5.59844ZM17 4.52C15.982 4.52 14.886 4.73787 13.7182 5.15495L14.1218 6.28504C15.194 5.90213 16.1514 5.72 17 5.72V4.52ZM13.7182 5.15495C12.5136 5.58518 11.3923 6.28408 10.354 7.2382L11.166 8.1218C12.101 7.26259 13.0864 6.65482 14.1218 6.28505L13.7182 5.15495ZM10.3546 7.23771C9.31065 8.19463 8.51593 9.45548 7.95612 10.995L9.08388 11.405C9.59073 10.0112 10.2894 8.92536 11.1654 8.12229L10.3546 7.23771ZM9.08361 10.9942L8.16361 8.47424L7.03639 8.88576L7.95639 11.4058L9.08361 10.9942ZM8.16356 8.88592C8.6493 7.55651 9.29731 6.40355 10.1038 5.42059L9.17616 4.65941C8.27602 5.75645 7.56403 7.03015 7.03644 8.47408L8.16356 8.88592ZM10.098 5.42756C10.9429 4.42909 11.8728 3.60232 12.887 2.94307L12.233 1.93693C11.1139 2.66435 10.0971 3.57091 9.18197 4.65243L10.098 5.42756ZM12.887 2.94307C13.9133 2.27597 14.9447 1.78063 15.9813 1.45194L15.6187 0.308059C14.4686 0.672699 13.34 1.21736 12.233 1.93693L12.887 2.94307ZM15.9774 1.45317C17.0488 1.12156 18.0554 0.96 19 0.96V-0.24C17.9179 -0.24 16.7912 -0.054895 15.6226 0.306826L15.9774 1.45317ZM19 0.96C21.0507 0.96 22.4744 1.52678 23.3916 2.55862L24.2884 1.76138C23.0723 0.393223 21.2693 -0.24 19 -0.24V0.96ZM23.3965 2.56409C24.3712 3.63391 24.88 5.04053 24.88 6.84H26.08C26.08 4.79947 25.4955 3.08609 24.2835 1.7559L23.3965 2.56409ZM24.88 6.84C24.88 8.5813 24.3724 10.2124 23.342 11.7453L24.338 12.4147C25.4943 10.6943 26.08 8.83203 26.08 6.84H24.88ZM23.3408 11.7472C22.3482 13.236 20.6937 14.6173 18.3201 15.8693L18.8799 16.9307C21.3596 15.6227 23.1985 14.124 24.3392 12.4128L23.3408 11.7472ZM18.3201 15.8693C15.9555 17.1166 12.7561 18.2222 8.70258 19.1759L8.97742 20.344C13.0839 19.3778 16.3912 18.2434 18.8799 16.9307L18.3201 15.8693ZM4.87974 32.2178C4.9599 29.5189 5 26.8862 5 24.32H3.8C3.8 26.8738 3.7601 29.4945 3.68026 32.1822L4.87974 32.2178ZM4.99997 24.3262C5.02672 21.7314 4.99998 19.2028 4.91968 16.7404L3.72032 16.7796C3.80002 19.2239 3.82662 21.7353 3.80003 24.3138L4.99997 24.3262ZM4.91986 16.747C4.86628 14.2825 4.74572 11.8842 4.55807 9.55188L3.36193 9.64812C3.54761 11.9558 3.66705 14.3308 3.72014 16.773L4.91986 16.747ZM4.55858 9.55872C4.3979 7.22882 4.18359 4.96501 3.91559 2.76737L2.72441 2.91263C2.98974 5.08832 3.2021 7.33118 3.36142 9.64128L4.55858 9.55872ZM3.41358 3.43266L9.49358 2.47266L9.30642 1.28734L3.22642 2.24734L3.41358 3.43266ZM8.80034 1.90021C8.88029 4.27215 8.94691 6.4972 9.0002 8.57538L10.1998 8.54462C10.1464 6.4628 10.0797 4.23451 9.99966 1.85979L8.80034 1.90021ZM9.0002 8.57538C9.05341 10.6507 9.08 12.6323 9.08 14.52H10.28C10.28 12.6211 10.2533 10.6293 10.1998 8.54462L9.0002 8.57538ZM9.08 14.52C9.08 16.4105 9.06669 18.2877 9.04006 20.1514L10.2399 20.1686C10.2666 18.299 10.28 16.4161 10.28 14.52H9.08ZM9.04006 20.1514C9.01352 22.0096 8.94715 23.8947 8.84092 25.8067L10.0391 25.8733C10.1462 23.9453 10.2132 22.0437 10.2399 20.1686L9.04006 20.1514ZM8.84052 25.815C8.76059 27.7334 8.66732 29.7853 8.56071 31.9708L9.75929 32.0292C9.86601 29.8413 9.95941 27.7866 10.0395 25.865L8.84052 25.815ZM9.13543 31.4005L4.25543 31.6005L4.30457 32.7995L9.18457 32.5995L9.13543 31.4005ZM9.66536 31.6766L7.74536 28.6766L6.73464 29.3234L8.65464 32.3234L9.66536 31.6766ZM7.24 29.6C10.0112 29.6 12.398 29.4119 14.393 29.0293L14.167 27.8507C12.2687 28.2148 9.96208 28.4 7.24 28.4V29.6ZM14.393 29.0293C16.3745 28.6493 18.0221 28.1278 19.3175 27.452L18.7625 26.388C17.6046 26.9922 16.0789 27.4841 14.167 27.8507L14.393 29.0293ZM19.3175 27.452C20.5923 26.7868 21.5725 26.0267 22.206 25.1519L21.234 24.4481C20.7475 25.1199 19.941 25.7732 18.7625 26.388L19.3175 27.452ZM22.2115 25.1441C22.829 24.262 23.16 23.3308 23.16 22.36H21.96C21.96 23.0425 21.731 23.738 21.2285 24.4559L22.2115 25.1441ZM23.16 22.36C23.16 21.1018 22.8058 20.0514 22.0054 19.3177L21.1946 20.2023C21.6742 20.6419 21.96 21.3248 21.96 22.36H23.16ZM22.0054 19.3177C21.2609 18.6352 20.3034 18.2212 19.1712 18.047L18.9888 19.233C19.9366 19.3788 20.6591 19.7115 21.1946 20.2023L22.0054 19.3177ZM19.1712 18.047C18.0711 17.8777 16.8716 17.8656 15.5765 18.0034L15.7035 19.1966C16.9151 19.0677 18.0089 19.0823 18.9888 19.233L19.1712 18.047ZM15.5752 18.0035C14.3185 18.1401 13.0629 18.3722 11.8085 18.6994L12.1115 19.8606C13.3105 19.5478 14.5082 19.3266 15.7048 19.1965L15.5752 18.0035ZM11.8175 18.6972C10.6049 18.9936 9.50877 19.3046 8.53026 19.6308L8.90974 20.7692C9.85123 20.4554 10.9151 20.1531 12.1025 19.8628L11.8175 18.6972ZM9.31774 20.252L9.47775 18.412L8.28226 18.308L8.12226 20.148L9.31774 20.252ZM9.18232 18.8783C10.7444 17.9671 12.384 17.2384 14.1019 16.6918L13.7381 15.5482C11.936 16.1216 10.2156 16.8863 8.57768 17.8417L9.18232 18.8783ZM14.1019 16.6918C15.8197 16.1452 17.4914 15.8221 19.118 15.7188L19.042 14.5212C17.3086 14.6313 15.5403 14.9748 13.7381 15.5482L14.1019 16.6918ZM19.1275 15.7181C20.7513 15.5892 22.1999 15.7069 23.4812 16.0586L23.7988 14.9014C22.3601 14.5064 20.7687 14.3841 19.0325 14.5219L19.1275 15.7181ZM23.4812 16.0586C24.7388 16.4038 25.7074 17.0101 26.4191 17.8641L27.3409 17.0959C26.4526 16.0299 25.2612 15.3029 23.7988 14.9014L23.4812 16.0586ZM26.4308 17.8778C27.1353 18.6732 27.52 19.7839 27.52 21.28H28.72C28.72 19.5761 28.278 18.1535 27.3292 17.0822L26.4308 17.8778ZM27.52 21.28C27.52 23.1079 26.9192 24.7468 25.6984 26.2167L26.6216 26.9833C28.0142 25.3066 28.72 23.3988 28.72 21.28H27.52ZM25.6984 26.2167C24.4869 27.6755 22.5451 28.8931 19.8054 29.8324L20.1946 30.9676C23.0549 29.9869 25.2198 28.6712 26.6216 26.9833L25.6984 26.2167ZM19.8037 29.833C17.111 30.7651 13.5656 31.2943 9.14563 31.4002L9.17437 32.5998C13.6611 32.4924 17.3424 31.9549 20.1963 30.967L19.8037 29.833Z" fill="#A80000" mask="url(#path-15-outside-7_64001_1255)"/>
</svg>
