<svg width="178" height="40" viewBox="0 0 178 40" fill="none" xmlns="http://www.w3.org/2000/svg">
<path d="M171.26 3.104L166.293 4.13103C166.293 4.13103 166.804 7.50701 166.965 10.6487L162.549 11.6757V14.2433L167.003 13.0583C166.878 16.929 166.057 19.5847 165.466 22.8546C164.61 27.5877 163.85 33.7174 171.26 33.7174C177.724 33.7174 177.014 25.9356 177.014 25.9356L174.098 27.1602C174.098 27.1602 174.098 31.3868 171.26 31.3868C167.899 31.3868 167.665 26.3355 168.264 22.8546C168.895 19.1897 169.065 16.8781 169.644 13.0583C169.671 12.8783 169.699 12.6937 169.728 12.5053L177.527 10.6487L176.699 8.00214L170.101 10.1352C170.65 6.70239 171.26 3.104 171.26 3.104Z" fill="#A000E5"/>
<path fill-rule="evenodd" clip-rule="evenodd" d="M165.899 3.85642L171.693 2.67139C171.693 2.67139 171.1 6.19077 170.55 9.62358L176.936 7.53002L178 10.8876L170.038 12.8232C170.009 13.0116 170.026 12.9197 169.999 13.0997C169.42 16.9195 169.25 19.1916 168.619 22.8564C168.02 26.3373 168.225 30.9937 171.26 31.0332C173.822 31.0665 173.743 26.9251 173.743 26.9251L177.33 25.3845C177.33 25.3845 178.433 33.9958 171.26 34.0748C164.007 34.1546 164.007 28.3076 165.111 22.7774C165.761 19.5189 166.451 17.2078 166.609 13.5342L162.194 14.7192V11.4011L166.609 10.3741C166.448 7.2324 165.899 3.85642 165.899 3.85642ZM170.826 3.54041L166.688 4.40943C166.688 4.40943 167.197 7.78541 167.358 10.9271L162.904 11.9541V13.7712L167.397 12.5862C167.273 16.4568 166.451 19.5866 165.86 22.8564C165.004 27.5896 164.205 33.3637 171.299 33.3637C177.093 33.3637 176.699 26.4905 176.699 26.4905L174.492 27.3991C174.492 27.3991 174.374 31.7442 171.299 31.7442C167.594 31.7442 167.35 26.3353 167.949 22.8544C168.58 19.1895 168.75 16.722 169.329 12.9022C169.356 12.7222 169.418 12.3796 169.447 12.1911L177.133 10.3741L176.502 8.47805L169.683 10.6486C170.233 7.21576 170.826 3.54041 170.826 3.54041Z" fill="#7500A7"/>
<path d="M150.096 11.7544L146.154 13.8085C146.154 13.8085 147.309 18.8186 147.849 21.9461C148.576 26.1526 149.189 33.7175 149.189 33.7175L152.027 32.8089C152.027 32.8089 150.096 24.1977 150.096 19.2206C150.096 18.1935 151.16 13.2429 155.929 13.3739C158.61 13.4476 159.083 16.8895 159.083 16.8895L160.856 13.8085C160.856 13.8085 159.831 9.81889 155.929 9.81885C152.461 9.81881 150.096 14.4015 150.096 14.4015V11.7544Z" fill="#0088EA"/>
<path fill-rule="evenodd" clip-rule="evenodd" d="M145.759 13.6133L150.449 11.1642V13.1788C150.449 13.1788 152.578 9.5447 155.849 9.4657C160.223 9.36008 161.249 13.8503 161.249 13.8503L158.884 17.9584C158.884 17.9584 158.648 13.8055 155.967 13.7318C151.395 13.6062 150.449 18.2744 150.449 19.3015C150.449 24.2786 152.459 33.0479 152.459 33.0479L148.873 34.1934C148.873 34.1934 148.22 26.2335 147.493 22.0271C146.953 18.8995 145.759 13.6133 145.759 13.6133ZM149.7 12.3493L146.587 14.0083C146.587 14.0083 147.662 18.781 148.203 21.9085C148.929 26.115 149.503 33.2454 149.503 33.2454L151.592 32.5738C151.592 32.5738 149.74 24.0021 149.74 19.025C149.74 17.9979 150.922 12.8843 155.889 13.0208C158.569 13.0944 159.199 15.9439 159.199 15.9439L160.461 13.7713C160.461 13.7713 159.594 10.2557 155.849 10.1767C152.381 10.1036 149.779 15.7464 149.779 15.7464L149.7 12.3493Z" fill="#005AC1"/>
<path fill-rule="evenodd" clip-rule="evenodd" d="M122.345 33.4494C122.345 33.4494 124.986 26.1812 126.207 19.4182C127.521 12.147 129.794 5.91719 133.539 2.79662C137.283 -0.323945 144.693 0.417839 144.693 0.417839C144.693 0.417839 142.942 10.1732 142.525 16.4951C142.124 22.5906 142.525 34.1518 142.525 34.1518H140.16V19.4182H129.794L126.917 33.4494H122.345ZM141.934 3.42025C141.934 3.42025 140.16 10.7276 140.16 15.1126C140.16 15.6525 140.16 16.4951 140.16 16.4951H130.472C130.472 16.4951 132.435 7.09357 135.076 5.07902C137.717 3.06446 141.934 3.42025 141.934 3.42025Z" fill="#00AFEF"/>
<path fill-rule="evenodd" clip-rule="evenodd" d="M125.833 19.4183C124.611 26.1814 121.812 33.7967 121.812 33.7967H127.208L130.07 19.7738H139.786V34.5077H142.86C142.86 34.5077 142.459 22.5891 142.86 16.4936C143.277 10.1717 145.107 0.102322 145.107 0.102322C145.107 0.102322 137.086 -0.765122 133.243 2.55136C129.4 5.86783 127.147 12.1472 125.833 19.4183ZM139.786 15.1127C139.786 10.7278 141.481 3.73639 141.481 3.73639C141.481 3.73639 137.539 3.49938 135.174 5.43494C132.809 7.37049 130.878 16.1397 130.878 16.1397H139.786V15.1127ZM144.299 0.73592C144.299 0.73592 136.653 0.102322 133.342 3.42199C130.031 6.74167 127.955 11.7933 126.641 19.0644C125.419 25.8275 122.857 33.0873 122.857 33.0873H126.641L129.479 19.0249H140.515V33.7983H142.171C142.171 33.7983 141.808 22.2763 142.21 16.1808C142.627 9.85898 144.299 0.73592 144.299 0.73592ZM140.515 14.7983C140.515 10.4134 142.368 3.10599 142.368 3.10599C139.49 2.78998 136.562 3.57811 134.997 4.68603C132.041 6.77959 130.031 16.8524 130.031 16.8524H140.515V14.7983Z" fill="#007CB7"/>
<path d="M97.7117 28.3851L90.1045 11.5576L94.2037 10.5306L99.3671 25.1855L103.979 10.0171L107.644 9.55176L96.0956 39.6429H92.9424L97.7117 28.3851Z" fill="#00C85B"/>
<path fill-rule="evenodd" clip-rule="evenodd" d="M89.5918 11.3224L97.3172 28.4264L92.3903 40.0002H96.3318L108.196 9.11035L103.702 9.70287L99.3274 24.0418L94.4399 10.0979L89.5918 11.3224ZM98.1055 28.3869L90.6166 11.7964L93.9669 10.9669L99.4062 26.3328L104.254 10.3349L107.092 9.97938L95.8588 39.2892H93.4939L98.1055 28.3869Z" fill="#008C24"/>
<path d="M68.0674 33.76V12.4294L71.1418 10.8099V14.3255C71.1418 14.3255 74.7922 10.9065 78.3154 10.8099C83.9736 10.6549 87.8933 16.0396 87.8933 21.7122C87.8933 25.4648 84.0306 33.76 84.0306 33.76H81.4686C81.4686 33.76 84.3665 22.5766 83.3605 18.9471C82.5722 16.103 81.3462 13.7119 78.3154 13.2984C74.5548 12.7854 72.5311 17.9505 71.9695 21.7122C71.2206 26.7288 71.1418 33.76 71.1418 33.76H68.0674Z" fill="#92D051"/>
<path fill-rule="evenodd" clip-rule="evenodd" d="M67.7148 12.1914V34.1145H71.4987C71.4987 34.1145 71.5775 26.8067 72.3264 21.7901C72.888 18.0285 74.7702 13.1636 78.357 13.6529C81.0766 14.0239 82.2885 16.2519 83.0474 19.1041C83.9934 22.6592 81.0372 34.1145 81.0372 34.1145H84.2693C84.2693 34.1145 88.2502 25.4637 88.2502 21.7111C88.2502 16.0385 83.9757 10.2983 78.3175 10.4533C74.7943 10.5499 71.4987 13.5532 71.4987 13.5532V10.2163L67.7148 12.1914ZM68.4243 33.4035V12.6259L70.7892 11.4013V15.1263C70.7892 15.1263 74.6519 11.2648 78.3175 11.1643C83.6386 11.0185 87.5408 16.0385 87.5408 21.7111C87.5408 25.4637 83.7963 33.4035 83.7963 33.4035H81.9438C81.9438 33.4035 84.7182 22.5406 83.6781 18.788C82.8897 15.9439 81.589 13.3882 78.3176 12.9419C74.2184 12.3827 72.1785 17.9495 71.617 21.7111C70.8681 26.7277 70.7892 33.4035 70.7892 33.4035H68.4243Z" fill="#5A9813"/>
<path d="M44.502 33.7571V12.4265L47.5763 10.807V14.3225C47.5763 14.3225 51.2267 10.9035 54.7499 10.807C60.4082 10.6519 64.3279 16.0366 64.3279 21.7093C64.3279 25.4619 60.4652 33.7571 60.4652 33.7571H57.9032C57.9032 33.7571 60.8011 22.5737 59.7951 18.9442C59.0068 16.1001 57.7808 13.709 54.7499 13.2955C50.9893 12.7825 48.9656 17.9476 48.4041 21.7093C47.6552 26.7259 47.5763 33.7571 47.5763 33.7571H44.502Z" fill="#FFFF01"/>
<path fill-rule="evenodd" clip-rule="evenodd" d="M44.1465 12.1914V34.1145H47.9304C47.9304 34.1145 48.0092 26.8067 48.7581 21.7901C49.3196 18.0285 51.2018 13.1636 54.7886 13.6529C57.5083 14.0239 58.7201 16.2519 59.4791 19.1041C60.425 22.6592 57.4689 34.1145 57.4689 34.1145H60.7009C60.7009 34.1145 64.6819 25.4637 64.6819 21.7111C64.6819 16.0385 60.4074 10.2983 54.7492 10.4533C51.226 10.5499 47.9304 13.5532 47.9304 13.5532V10.2163L44.1465 12.1914ZM44.856 33.4035V12.6259L47.2209 11.4013V15.1263C47.2209 15.1263 51.0836 11.2648 54.7492 11.1643C60.0703 11.0185 63.9724 16.0385 63.9724 21.7111C63.9724 25.4637 60.2279 33.4035 60.2279 33.4035H58.3754C58.3754 33.4035 61.1498 22.5406 60.1097 18.788C59.3214 15.9439 58.0207 13.3882 54.7492 12.9419C50.65 12.3827 48.6102 17.9495 48.0486 21.7111C47.2997 26.7277 47.2209 33.4035 47.2209 33.4035H44.856Z" fill="#C4C801"/>
<path fill-rule="evenodd" clip-rule="evenodd" d="M19.1964 23.7631C18.5298 17.4165 23.3524 11.2925 29.7203 11.2808C36.0981 11.269 40.7149 16.735 40.0471 23.0916C39.4497 28.7774 35.4251 33.8861 29.7203 33.8754C24.0266 33.8647 19.7925 29.4379 19.1964 23.7631ZM29.7203 31.4658C25.8668 31.4658 23.9258 27.6048 23.5321 23.7631C23.0784 19.3365 25.28 14.2039 29.7203 14.2039C34.1606 14.2039 36.3622 19.3365 35.9085 23.7631C35.5148 27.6048 33.5738 31.4658 29.7203 31.4658Z" fill="#FFC000"/>
<path fill-rule="evenodd" clip-rule="evenodd" d="M29.7208 34.2329C23.4481 34.3013 18.6996 28.748 18.7633 22.4616C18.8263 16.2425 23.7297 10.9272 29.7208 10.9272C36.5791 10.9272 40.8278 16.6154 40.4418 22.4616C40.0557 28.3077 36.3032 34.1612 29.7208 34.2329ZM29.7208 11.6383C24.1632 11.6383 19.5357 16.6351 19.4728 22.4616C19.4092 28.3555 23.8393 33.5219 29.7208 33.5219C35.3966 33.5219 39.5527 28.1497 39.7323 22.4616C39.9294 16.2204 35.5937 11.6383 29.7208 11.6383Z" fill="#C38B00"/>
<path fill-rule="evenodd" clip-rule="evenodd" d="M23.099 22.4616C22.9768 25.6217 24.7545 32.0208 29.7996 31.8233C34.6871 31.632 36.4443 25.8982 36.3032 22.4616C36.1182 17.9584 33.9478 13.8503 29.7208 13.8503C25.3457 13.8503 23.2631 18.2191 23.099 22.4616ZM23.8085 22.4616C23.7297 25.8587 25.5822 31.2922 29.7996 31.1123C34.0171 30.9324 35.5937 26.2932 35.5937 22.4616C35.5937 18.63 33.5597 14.5737 29.7208 14.5614C25.8727 14.549 23.898 18.6061 23.8085 22.4616Z" fill="#C38B00"/>
<path fill-rule="evenodd" clip-rule="evenodd" d="M2.32686 1.64413C2.32686 1.64413 2.23402 11.9203 2.05095 18.6296C1.89998 24.1625 0.395508 32.613 0.395508 32.613C8.23916 35.2991 14.6244 29.0184 14.6244 25.5818C14.6244 21.3156 9.65811 19.0641 9.65811 19.0641C9.65811 19.0641 17.147 16.2596 17.147 10.2159C17.147 1.28158 2.32686 1.64413 2.32686 1.64413ZM4.92827 18.0371L5.91366 4.13273C5.91366 4.13273 13.0003 4.35753 12.7719 11.3219C12.5748 17.332 4.92827 18.0371 4.92827 18.0371ZM3.31224 30.5195L4.65236 20.5652C4.65236 20.5652 12.3585 20.2096 10.6435 26.8458C9.81662 30.0454 3.31224 30.5195 3.31224 30.5195Z" fill="#FE0000"/>
<path fill-rule="evenodd" clip-rule="evenodd" d="M1.69486 18.6296C1.87793 11.9203 1.97077 1.28862 1.97077 1.28862C1.97077 1.28862 17.5004 0.814567 17.5004 10.2553C17.5004 16.1805 10.4845 19.1036 10.4845 19.1036C10.4845 19.1036 15.0172 21.4737 14.9778 25.5818C14.9411 29.4132 8.19839 35.8126 0 32.85C0 32.85 1.54389 24.1624 1.69486 18.6296ZM8.75021 19.0246C11.3516 19.9726 14.426 22.7772 14.2684 25.5818C14.1371 27.9163 12.0021 30.0418 9.85383 31.3555C7.21301 32.9705 3.46855 33.3635 0.788307 32.376C0.788307 32.376 2.28609 24.0412 2.40434 18.6296C2.50098 14.2065 2.68024 1.99964 2.68024 1.99964C9.69617 2.22093 16.7909 4.17218 16.7909 10.2553C16.7909 16.3385 8.75021 19.0246 8.75021 19.0246Z" fill="#C51F1F"/>
<path fill-rule="evenodd" clip-rule="evenodd" d="M2.91673 30.9144C2.91673 30.9144 10.2339 30.5194 11.0363 26.7668C12.5735 19.5776 4.33569 20.2491 4.33569 20.2491L2.91673 30.9144ZM3.70504 30.1244L4.96633 20.9207C4.96633 20.9207 11.9428 20.8022 10.2874 26.7273C9.47072 29.6504 3.70504 30.1244 3.70504 30.1244Z" fill="#C51F1F"/>
<path fill-rule="evenodd" clip-rule="evenodd" d="M5.59698 3.77717L4.53276 18.4321C8.39547 18.0371 12.9314 16.1015 13.1253 11.3219C13.4312 3.78148 5.59698 3.77717 5.59698 3.77717ZM5.32107 17.6421L6.22762 4.52771C6.22762 4.52771 12.6283 4.84371 12.4158 11.3219C12.2384 16.7335 5.32107 17.6421 5.32107 17.6421Z" fill="#C51F1F"/>
</svg>
