<svg width="142" height="60" viewBox="0 0 142 60" fill="none" xmlns="http://www.w3.org/2000/svg">
<path d="M20.9606 18.9068C21.0396 19.5775 21.2916 20.2122 21.689 20.7418C22.0864 21.2713 22.614 21.6752 23.214 21.9092C23.8141 22.1431 24.4634 22.1982 25.091 22.0684C25.8083 21.92 26.7727 22.4156 26.7727 23.188V26.0915C26.7727 27.2897 25.8538 28.2609 24.72 28.2609H19.7199C18.9455 28.2609 18.443 27.1797 18.5639 26.3715C18.6692 25.6679 18.5793 24.9471 18.305 24.2964C18.0307 23.6457 17.5839 23.093 17.0186 22.705C16.4532 22.3171 15.7935 22.1107 15.1194 22.1107C14.4454 22.1107 13.7857 22.3171 13.2203 22.705C12.655 23.093 12.2082 23.6457 11.9339 24.2964C11.6596 24.9471 11.5696 25.6679 11.675 26.3715C11.7959 27.1797 11.2933 28.2609 10.519 28.2609H7.88683C6.74536 28.2609 5.82 27.2829 5.82 26.0767V23.2953C5.82 22.477 4.79698 21.9458 4.03209 22.0737C3.36627 22.185 2.68422 22.0899 2.06843 21.8002C1.45266 21.5103 0.929571 21.0382 0.562474 20.4407C0.195377 19.8433 0 19.1462 0 18.4338C1.11593e-05 17.7216 0.195377 17.0244 0.562474 16.427C0.929571 15.8296 1.45266 15.3573 2.06843 15.0676C2.68422 14.7777 3.36627 14.6827 4.03209 14.794C4.79698 14.9218 5.82 14.3907 5.82 13.5724V8.33428C5.82 7.128 6.74536 6.15016 7.88683 6.15016H10.519C11.2933 6.15016 11.7959 5.06908 11.675 4.26082C11.5696 3.55723 11.6596 2.83647 11.9339 2.18577C12.2082 1.53506 12.655 0.982303 13.2203 0.594382C13.7857 0.206461 14.4454 0 15.1194 0C15.7935 0 16.4532 0.206461 17.0186 0.594382C17.5839 0.982303 18.0307 1.53506 18.305 2.18577C18.5793 2.83647 18.6692 3.55723 18.5639 4.26082C18.443 5.06908 18.9455 6.15016 19.7199 6.15016H23.9605C25.4977 6.15016 26.7437 7.46694 26.7437 9.09123V13.4592C26.7437 14.3236 25.6586 14.8908 24.8467 14.785C24.1416 14.6932 23.4266 14.8312 22.7976 15.1806C22.1686 15.53 21.6556 16.0739 21.3273 16.74C20.9991 17.4059 20.8711 18.1619 20.9606 18.9068Z" fill="#FA897B"/>
<path d="M55.8536 22.3223C55.9812 22.2798 56.0492 22.1448 56.0053 22.0214C55.5666 20.787 54.1725 20.1283 52.8977 20.5531L49.1034 21.8171C48.879 21.8919 48.6314 21.7998 48.5164 21.5988C48.123 20.9109 47.604 20.3107 46.9845 19.8212C46.9751 19.8143 46.966 19.8073 46.9573 19.7999C46.5871 19.5106 46.1814 19.2606 45.7455 19.0546C43.6716 18.0747 41.2064 18.2615 39.3121 19.5418C39.0906 19.6915 38.7858 19.6391 38.6313 19.4247C38.4766 19.2102 38.5308 18.9151 38.7523 18.7654C39.8071 18.0524 41.0425 17.6181 42.3249 17.5096C43.6457 17.3978 44.9769 17.6378 46.1744 18.2036C46.5261 18.3698 46.8608 18.5609 47.1764 18.7749L54.8488 8.55544C55.2849 7.97479 55.1516 7.15879 54.5517 6.73674C54.2612 6.5323 53.9058 6.44958 53.5509 6.50389C53.1962 6.55822 52.8844 6.74306 52.6732 7.0244L47.1711 14.353C46.9723 14.6177 46.6791 14.7911 46.3451 14.8415C46.0112 14.8918 45.6772 14.813 45.4048 14.6193C44.9128 14.2698 44.75 13.6306 45.0176 13.0996L49.6486 3.91201C49.9739 3.2668 49.6962 2.48567 49.0298 2.17081C48.3634 1.85594 47.5566 2.12472 47.2313 2.76993L42.6203 11.918C42.4863 12.1839 42.2574 12.3935 41.9759 12.5084C41.6944 12.6233 41.3795 12.6357 41.0894 12.5429C40.7779 12.4435 40.5219 12.234 40.3686 11.9532C40.2152 11.6725 40.1805 11.3497 40.2711 11.0444L42.7714 2.60956C42.9761 1.91947 42.5626 1.1969 41.8498 0.998873C41.5045 0.902918 41.1413 0.942931 40.8271 1.11148C40.5128 1.28003 40.2853 1.55694 40.1861 1.89123L37.568 10.7236C37.4845 11.0058 37.3122 11.248 37.0699 11.4245C36.8275 11.6008 36.5393 11.6936 36.236 11.6929C35.8454 11.6921 35.4718 11.5302 35.2106 11.2489C34.9496 10.9675 34.8234 10.5904 34.8644 10.2143L35.269 6.4943C35.3067 6.14843 35.2029 5.80908 34.9769 5.53873C34.8513 5.38858 34.6965 5.26971 34.5224 5.18747C34.383 5.12159 34.2313 5.0792 34.0724 5.06301L34.0707 5.06286C33.3338 4.98771 32.6707 5.50681 32.5923 6.22006L31.2493 18.4482C30.8821 21.791 32.732 25.0275 35.8523 26.5018C37.8405 27.4411 40.0872 27.5745 42.179 26.8778L55.8536 22.3223Z" fill="#D0E6A5"/>
<path d="M56.9321 21.7129C56.6346 20.8758 56.0182 20.201 55.1965 19.8127C54.3748 19.4244 53.446 19.3693 52.5813 19.6573L49.1642 20.7956C48.8205 20.2669 48.4096 19.7885 47.941 19.3694L55.642 9.11194C56.3953 8.10873 56.1649 6.69955 55.1288 5.97042C54.627 5.61725 54.0131 5.47437 53.4003 5.56825C52.7873 5.6621 52.2489 5.98136 51.8841 6.46727L46.382 13.7958C46.3375 13.8552 46.2715 13.8942 46.1966 13.9054C46.1217 13.9167 46.0468 13.8991 45.9857 13.8556C45.8752 13.7772 45.8386 13.6336 45.8988 13.5145L50.5297 4.327C51.0914 3.21252 50.6119 1.86333 49.4607 1.31946C48.3096 0.775599 46.916 1.23983 46.3544 2.3543L41.7433 11.5024C41.681 11.6258 41.5326 11.6865 41.3979 11.6434C41.2519 11.5968 41.1708 11.4483 41.2133 11.3052L43.7135 2.87039C44.0668 1.67843 43.3526 0.430363 42.1214 0.0883071C41.5251 -0.0774391 40.8977 -0.00835181 40.3549 0.28281C39.8122 0.573937 39.4191 1.05227 39.2479 1.62965L36.6299 10.4621C36.5803 10.6294 36.42 10.746 36.2402 10.7456C36.1242 10.7453 36.0178 10.6992 35.9403 10.6158C35.8628 10.5322 35.8268 10.4247 35.8391 10.3132L36.2437 6.59316C36.3087 5.9957 36.1295 5.40954 35.7392 4.94261C35.3487 4.47567 34.7939 4.18387 34.1767 4.12091L34.175 4.12075C33.5584 4.05786 32.9532 4.2311 32.4712 4.60857C31.989 4.986 31.6874 5.52261 31.6218 6.11955L30.2787 18.3476C30.1774 19.2707 30.2238 20.1982 30.4167 21.1046C30.6056 21.9912 30.9311 22.843 31.3845 23.6362C31.8381 24.4296 32.4105 25.1492 33.0862 25.7749C33.7769 26.4146 34.5639 26.9454 35.4255 27.3525C36.5239 27.8714 37.6993 28.1713 38.9191 28.2438C40.139 28.3162 41.3436 28.1578 42.4992 27.7728L56.1739 23.2173C56.4828 23.1145 56.7317 22.9013 56.8749 22.6173C57.018 22.333 57.0384 22.0119 56.9321 21.7129ZM31.2512 18.4478L32.5943 6.21966C32.6726 5.50646 33.3358 4.98735 34.0727 5.06245L34.0744 5.06261C34.2332 5.0788 34.3848 5.12117 34.5244 5.18706C34.6985 5.26931 34.8533 5.38817 34.9788 5.53831C35.2049 5.80868 35.3085 6.14802 35.271 6.49391L34.8663 10.2139C34.8253 10.5899 34.9516 10.9671 35.2126 11.2484C35.4735 11.5299 35.8473 11.6916 36.238 11.6926C36.5411 11.6932 36.8294 11.6003 37.0718 11.424C37.3141 11.2476 37.4864 11.0053 37.57 10.7233L40.188 1.89083C40.287 1.55653 40.5147 1.27963 40.829 1.11107C41.1431 0.94252 41.5063 0.902518 41.8516 0.998472C42.5644 1.19649 42.9778 1.91906 42.7733 2.60916L40.2731 11.0441C40.1825 11.3494 40.2172 11.6721 40.3706 11.9529C40.5238 12.2338 40.7799 12.4432 41.0914 12.5426C41.3815 12.6353 41.6964 12.623 41.9779 12.5081C42.2594 12.3932 42.4883 12.1835 42.6223 11.9177L47.2333 2.7696C47.5586 2.12439 48.3654 1.85561 49.0318 2.17048C49.6982 2.48534 49.9758 3.26646 49.6506 3.91168L45.0197 13.0992C44.752 13.6302 44.9148 14.2693 45.4068 14.619C45.6792 14.8125 46.0132 14.8915 46.3471 14.8412C46.6811 14.7907 46.9745 14.6172 47.1732 14.3525L52.6752 7.02401C52.8864 6.74267 53.1982 6.55783 53.5529 6.50352C53.9078 6.44921 54.2632 6.53191 54.5538 6.73636C55.1536 7.15846 55.2869 7.97434 54.8508 8.55511L47.1784 18.7745C46.8628 18.5604 46.5282 18.3694 46.1764 18.2033C44.9789 17.6374 43.6478 17.3974 42.3269 17.5092C41.0446 17.6177 39.8091 18.052 38.7543 18.765C38.5328 18.9147 38.4787 19.2099 38.6333 19.4243C38.7878 19.6387 39.0928 19.6911 39.3141 19.5415C41.2084 18.2611 43.6736 18.0744 45.7476 19.0542C46.1834 19.2602 46.5892 19.5102 46.9593 19.7995C46.968 19.8069 46.9771 19.8139 46.9865 19.8208C47.606 20.3103 48.125 20.9105 48.5185 21.5984C48.6334 21.7994 48.881 21.8914 49.1054 21.8167L52.8997 20.5528C54.1746 20.128 55.5687 20.7867 56.0073 22.021C56.0512 22.1445 55.9832 22.2794 55.8558 22.3219L42.1808 26.8773C40.0892 27.5742 37.8423 27.4406 35.8543 26.5014C32.7339 25.027 30.8841 21.7905 31.2512 18.4478Z" fill="#D0E6A5"/>
<path d="M48.5847 31.7397H38.6411C37.4125 31.7397 36.2781 32.512 35.6611 33.7562L30.6892 43.8508C30.0724 45.1011 30.0724 46.6394 30.6892 47.8897L35.6611 57.9842C36.2781 59.2345 37.4125 60.0006 38.6411 60.0006H48.5847C49.8134 60.0006 50.9478 59.2284 51.5647 57.9842L56.5367 47.8897C57.1535 46.6394 57.1535 45.1011 56.5367 43.8508L51.57 33.7562C50.9478 32.5058 49.8134 31.7397 48.5847 31.7397Z" fill="#85E2CD"/>
<path fill-rule="evenodd" clip-rule="evenodd" d="M15.6806 38.0484C16.1419 37.109 16.2302 36.0281 15.8348 35.0457C15.0696 33.1443 12.7821 32.332 10.7256 33.2316C8.66899 34.1312 7.62217 36.402 8.38741 38.3036C8.78276 39.2859 9.58433 39.9775 10.5505 40.2926L8.64785 41.1249L2.07927 41.2213C1.75479 41.2261 1.42973 41.309 1.13394 41.4625C0.838142 41.6161 0.581084 41.8353 0.386362 42.1002C0.19165 42.3651 0.0655013 42.6671 0.0195094 42.9784C-0.0264824 43.2897 0.0091516 43.6006 0.123132 43.8822C0.224502 44.1342 0.385743 44.3561 0.594976 44.5317C0.804208 44.7074 1.05608 44.8322 1.33202 44.8969L10.1201 46.9595L11.8055 51.1476L12.7642 58.1787C12.843 58.7592 13.1552 59.269 13.6364 59.6024C14.1175 59.9357 14.7304 60.067 15.348 59.9689C15.9655 59.8708 16.5403 59.5509 16.9528 59.0755C17.3654 58.6002 17.5841 58.006 17.5636 57.4163L17.2942 49.5516L22.4875 55.2614C22.8768 55.6899 23.4366 55.9436 24.051 55.9697C24.6653 55.9957 25.287 55.7924 25.7868 55.4017C26.2866 55.011 26.6263 54.463 26.7351 53.8716C26.8441 53.2801 26.714 52.6905 26.3718 52.2253L22.2319 46.5867L20.5465 42.3986L25.2902 34.4117C25.4388 34.1617 25.5297 33.8877 25.5565 33.6098C25.5831 33.3319 25.5449 33.0571 25.4444 32.8057C25.3311 32.5239 25.1431 32.2802 24.8978 32.0967C24.6524 31.9133 24.3575 31.796 24.04 31.7555C23.7224 31.7151 23.3926 31.7528 23.0805 31.8653C22.7685 31.9778 22.4843 32.1614 22.254 32.3994L17.5848 37.2155L15.6806 38.0484Z" fill="#FFDD95"/>
<path d="M71.744 18.984H71.68L70.816 20.76L68.528 24.984L66.24 20.76L65.376 18.984H65.312V27H63.312V15.832H65.696L68.56 21.288H68.624L71.456 15.832H73.744V27H71.744V18.984ZM79.3825 27.192C78.7852 27.192 78.2465 27.0907 77.7665 26.888C77.2972 26.6853 76.8918 26.392 76.5505 26.008C76.2198 25.624 75.9638 25.1653 75.7825 24.632C75.6012 24.088 75.5105 23.48 75.5105 22.808C75.5105 22.136 75.6012 21.5333 75.7825 21C75.9638 20.4667 76.2198 20.0133 76.5505 19.64C76.8918 19.256 77.2972 18.9627 77.7665 18.76C78.2465 18.5573 78.7852 18.456 79.3825 18.456C79.9798 18.456 80.5185 18.5573 80.9985 18.76C81.4785 18.9627 81.8838 19.256 82.2145 19.64C82.5558 20.0133 82.8172 20.4667 82.9985 21C83.1798 21.5333 83.2705 22.136 83.2705 22.808C83.2705 23.48 83.1798 24.088 82.9985 24.632C82.8172 25.1653 82.5558 25.624 82.2145 26.008C81.8838 26.392 81.4785 26.6853 80.9985 26.888C80.5185 27.0907 79.9798 27.192 79.3825 27.192ZM79.3825 25.544C79.9265 25.544 80.3532 25.3787 80.6625 25.048C80.9718 24.7173 81.1265 24.232 81.1265 23.592V22.04C81.1265 21.4107 80.9718 20.9307 80.6625 20.6C80.3532 20.2693 79.9265 20.104 79.3825 20.104C78.8492 20.104 78.4278 20.2693 78.1185 20.6C77.8092 20.9307 77.6545 21.4107 77.6545 22.04V23.592C77.6545 24.232 77.8092 24.7173 78.1185 25.048C78.4278 25.3787 78.8492 25.544 79.3825 25.544ZM87.4556 27C86.7516 27 86.213 26.8187 85.8396 26.456C85.477 26.0827 85.2956 25.5547 85.2956 24.872V20.28H84.0636V18.648H84.7036C85.013 18.648 85.221 18.5787 85.3276 18.44C85.445 18.2907 85.5036 18.072 85.5036 17.784V16.36H87.3436V18.648H89.0556V20.28H87.3436V25.368H88.9276V27H87.4556ZM91.68 17.432C91.2533 17.432 90.944 17.336 90.752 17.144C90.5707 16.952 90.48 16.7067 90.48 16.408V16.088C90.48 15.7893 90.5707 15.544 90.752 15.352C90.944 15.16 91.2533 15.064 91.68 15.064C92.096 15.064 92.4 15.16 92.592 15.352C92.784 15.544 92.88 15.7893 92.88 16.088V16.408C92.88 16.7067 92.784 16.952 92.592 17.144C92.4 17.336 92.096 17.432 91.68 17.432ZM90.656 18.648H92.704V27H90.656V18.648ZM96.6939 27L93.9099 18.648H95.9259L97.0939 22.248L97.9099 25.224H98.0219L98.8379 22.248L99.9739 18.648H101.926L99.1259 27H96.6939ZM109.12 27C108.672 27 108.315 26.872 108.048 26.616C107.792 26.3493 107.632 25.9973 107.568 25.56H107.472C107.333 26.104 107.051 26.5147 106.624 26.792C106.197 27.0587 105.669 27.192 105.04 27.192C104.187 27.192 103.531 26.968 103.072 26.52C102.613 26.072 102.384 25.4747 102.384 24.728C102.384 23.864 102.693 23.224 103.312 22.808C103.931 22.3813 104.811 22.168 105.952 22.168H107.376V21.56C107.376 21.0907 107.253 20.728 107.008 20.472C106.763 20.216 106.368 20.088 105.824 20.088C105.344 20.088 104.955 20.1947 104.656 20.408C104.368 20.6107 104.123 20.856 103.92 21.144L102.704 20.056C103.013 19.576 103.424 19.192 103.936 18.904C104.448 18.6053 105.125 18.456 105.968 18.456C107.099 18.456 107.957 18.712 108.544 19.224C109.131 19.736 109.424 20.472 109.424 21.432V25.368H110.256V27H109.12ZM105.728 25.704C106.187 25.704 106.576 25.6027 106.896 25.4C107.216 25.1973 107.376 24.8987 107.376 24.504V23.4H106.064C104.997 23.4 104.464 23.7413 104.464 24.424V24.696C104.464 25.0373 104.571 25.2933 104.784 25.464C105.008 25.624 105.323 25.704 105.728 25.704ZM114.283 27C113.579 27 113.04 26.8187 112.667 26.456C112.304 26.0827 112.123 25.5547 112.123 24.872V20.28H110.891V18.648H111.531C111.84 18.648 112.048 18.5787 112.155 18.44C112.272 18.2907 112.331 18.072 112.331 17.784V16.36H114.171V18.648H115.883V20.28H114.171V25.368H115.755V27H114.283ZM118.507 17.432C118.081 17.432 117.771 17.336 117.579 17.144C117.398 16.952 117.307 16.7067 117.307 16.408V16.088C117.307 15.7893 117.398 15.544 117.579 15.352C117.771 15.16 118.081 15.064 118.507 15.064C118.923 15.064 119.227 15.16 119.419 15.352C119.611 15.544 119.707 15.7893 119.707 16.088V16.408C119.707 16.7067 119.611 16.952 119.419 17.144C119.227 17.336 118.923 17.432 118.507 17.432ZM117.483 18.648H119.531V27H117.483V18.648ZM125.041 27.192C124.444 27.192 123.905 27.0907 123.425 26.888C122.956 26.6853 122.55 26.392 122.209 26.008C121.878 25.624 121.622 25.1653 121.441 24.632C121.26 24.088 121.169 23.48 121.169 22.808C121.169 22.136 121.26 21.5333 121.441 21C121.622 20.4667 121.878 20.0133 122.209 19.64C122.55 19.256 122.956 18.9627 123.425 18.76C123.905 18.5573 124.444 18.456 125.041 18.456C125.638 18.456 126.177 18.5573 126.657 18.76C127.137 18.9627 127.542 19.256 127.873 19.64C128.214 20.0133 128.476 20.4667 128.657 21C128.838 21.5333 128.929 22.136 128.929 22.808C128.929 23.48 128.838 24.088 128.657 24.632C128.476 25.1653 128.214 25.624 127.873 26.008C127.542 26.392 127.137 26.6853 126.657 26.888C126.177 27.0907 125.638 27.192 125.041 27.192ZM125.041 25.544C125.585 25.544 126.012 25.3787 126.321 25.048C126.63 24.7173 126.785 24.232 126.785 23.592V22.04C126.785 21.4107 126.63 20.9307 126.321 20.6C126.012 20.2693 125.585 20.104 125.041 20.104C124.508 20.104 124.086 20.2693 123.777 20.6C123.468 20.9307 123.313 21.4107 123.313 22.04V23.592C123.313 24.232 123.468 24.7173 123.777 25.048C124.086 25.3787 124.508 25.544 125.041 25.544ZM130.569 27V18.648H132.617V20.04H132.697C132.867 19.592 133.134 19.2187 133.497 18.92C133.87 18.6107 134.382 18.456 135.033 18.456C135.897 18.456 136.558 18.7387 137.017 19.304C137.475 19.8693 137.705 20.6747 137.705 21.72V27H135.657V21.928C135.657 21.3307 135.55 20.8827 135.337 20.584C135.123 20.2853 134.771 20.136 134.281 20.136C134.067 20.136 133.859 20.168 133.657 20.232C133.465 20.2853 133.289 20.3707 133.129 20.488C132.979 20.5947 132.857 20.7333 132.761 20.904C132.665 21.064 132.617 21.256 132.617 21.48V27H130.569Z" fill="black"/>
<path d="M66.784 44.192C65.824 44.192 65.008 44.0213 64.336 43.68C63.6747 43.3387 63.104 42.8907 62.624 42.336L64.048 40.96C64.432 41.408 64.8587 41.7493 65.328 41.984C65.808 42.2187 66.336 42.336 66.912 42.336C67.5627 42.336 68.0533 42.1973 68.384 41.92C68.7147 41.632 68.88 41.248 68.88 40.768C68.88 40.3947 68.7733 40.0907 68.56 39.856C68.3467 39.6213 67.9467 39.4507 67.36 39.344L66.304 39.184C64.0747 38.832 62.96 37.7493 62.96 35.936C62.96 35.4347 63.0507 34.9813 63.232 34.576C63.424 34.1707 63.696 33.824 64.048 33.536C64.4 33.248 64.8213 33.0293 65.312 32.88C65.8133 32.72 66.3787 32.64 67.008 32.64C67.8507 32.64 68.5867 32.7787 69.216 33.056C69.8453 33.3333 70.384 33.744 70.832 34.288L69.392 35.648C69.1147 35.3067 68.7787 35.0293 68.384 34.816C67.9893 34.6027 67.4933 34.496 66.896 34.496C66.288 34.496 65.8293 34.6133 65.52 34.848C65.2213 35.072 65.072 35.392 65.072 35.808C65.072 36.2347 65.1947 36.5493 65.44 36.752C65.6853 36.9547 66.08 37.104 66.624 37.2L67.664 37.392C68.7947 37.5947 69.6267 37.9573 70.16 38.48C70.704 38.992 70.976 39.712 70.976 40.64C70.976 41.1733 70.88 41.6587 70.688 42.096C70.5067 42.5227 70.2347 42.896 69.872 43.216C69.52 43.5253 69.0827 43.7653 68.56 43.936C68.048 44.1067 67.456 44.192 66.784 44.192ZM76.0853 44.192C75.4666 44.192 74.9173 44.0907 74.4373 43.888C73.9573 43.6853 73.5519 43.392 73.2213 43.008C72.9013 42.624 72.6559 42.1653 72.4853 41.632C72.3146 41.088 72.2293 40.48 72.2293 39.808C72.2293 39.136 72.3146 38.5333 72.4853 38C72.6559 37.4667 72.9013 37.0133 73.2213 36.64C73.5519 36.256 73.9573 35.9627 74.4373 35.76C74.9173 35.5573 75.4666 35.456 76.0853 35.456C76.9279 35.456 77.6213 35.6427 78.1653 36.016C78.7199 36.3893 79.1199 36.9067 79.3653 37.568L77.6853 38.32C77.5893 37.968 77.4079 37.68 77.1413 37.456C76.8853 37.2213 76.5333 37.104 76.0853 37.104C75.5093 37.104 75.0773 37.2853 74.7893 37.648C74.5119 38.0107 74.3733 38.4853 74.3733 39.072V40.592C74.3733 41.1787 74.5119 41.6533 74.7893 42.016C75.0773 42.368 75.5093 42.544 76.0853 42.544C76.5759 42.544 76.9546 42.4213 77.2213 42.176C77.4879 41.92 77.6959 41.6053 77.8453 41.232L79.4133 41.984C79.1359 42.72 78.7146 43.2747 78.1493 43.648C77.5839 44.0107 76.8959 44.192 76.0853 44.192ZM80.8164 32.16H82.8644V37.04H82.9444C83.115 36.592 83.3817 36.2187 83.7444 35.92C84.1177 35.6107 84.6297 35.456 85.2804 35.456C86.1444 35.456 86.8057 35.7387 87.2644 36.304C87.723 36.8693 87.9524 37.6747 87.9524 38.72V44H85.9044V38.928C85.9044 38.3307 85.7977 37.8827 85.5844 37.584C85.371 37.2853 85.019 37.136 84.5284 37.136C84.315 37.136 84.107 37.168 83.9044 37.232C83.7124 37.2853 83.5364 37.3707 83.3764 37.488C83.227 37.5947 83.1044 37.7333 83.0084 37.904C82.9124 38.064 82.8644 38.256 82.8644 38.48V44H80.8164V32.16ZM93.3586 44.192C92.7613 44.192 92.2226 44.0907 91.7426 43.888C91.2733 43.6853 90.868 43.392 90.5266 43.008C90.196 42.624 89.94 42.1653 89.7586 41.632C89.5773 41.088 89.4866 40.48 89.4866 39.808C89.4866 39.136 89.5773 38.5333 89.7586 38C89.94 37.4667 90.196 37.0133 90.5266 36.64C90.868 36.256 91.2733 35.9627 91.7426 35.76C92.2226 35.5573 92.7613 35.456 93.3586 35.456C93.956 35.456 94.4946 35.5573 94.9746 35.76C95.4546 35.9627 95.86 36.256 96.1906 36.64C96.532 37.0133 96.7933 37.4667 96.9746 38C97.156 38.5333 97.2466 39.136 97.2466 39.808C97.2466 40.48 97.156 41.088 96.9746 41.632C96.7933 42.1653 96.532 42.624 96.1906 43.008C95.86 43.392 95.4546 43.6853 94.9746 43.888C94.4946 44.0907 93.956 44.192 93.3586 44.192ZM93.3586 42.544C93.9026 42.544 94.3293 42.3787 94.6386 42.048C94.948 41.7173 95.1026 41.232 95.1026 40.592V39.04C95.1026 38.4107 94.948 37.9307 94.6386 37.6C94.3293 37.2693 93.9026 37.104 93.3586 37.104C92.8253 37.104 92.404 37.2693 92.0946 37.6C91.7853 37.9307 91.6306 38.4107 91.6306 39.04V40.592C91.6306 41.232 91.7853 41.7173 92.0946 42.048C92.404 42.3787 92.8253 42.544 93.3586 42.544ZM102.198 44.192C101.601 44.192 101.062 44.0907 100.582 43.888C100.113 43.6853 99.7076 43.392 99.3663 43.008C99.0356 42.624 98.7796 42.1653 98.5983 41.632C98.4169 41.088 98.3263 40.48 98.3263 39.808C98.3263 39.136 98.4169 38.5333 98.5983 38C98.7796 37.4667 99.0356 37.0133 99.3663 36.64C99.7076 36.256 100.113 35.9627 100.582 35.76C101.062 35.5573 101.601 35.456 102.198 35.456C102.796 35.456 103.334 35.5573 103.814 35.76C104.294 35.9627 104.7 36.256 105.03 36.64C105.372 37.0133 105.633 37.4667 105.814 38C105.996 38.5333 106.086 39.136 106.086 39.808C106.086 40.48 105.996 41.088 105.814 41.632C105.633 42.1653 105.372 42.624 105.03 43.008C104.7 43.392 104.294 43.6853 103.814 43.888C103.334 44.0907 102.796 44.192 102.198 44.192ZM102.198 42.544C102.742 42.544 103.169 42.3787 103.478 42.048C103.788 41.7173 103.942 41.232 103.942 40.592V39.04C103.942 38.4107 103.788 37.9307 103.478 37.6C103.169 37.2693 102.742 37.104 102.198 37.104C101.665 37.104 101.244 37.2693 100.934 37.6C100.625 37.9307 100.47 38.4107 100.47 39.04V40.592C100.47 41.232 100.625 41.7173 100.934 42.048C101.244 42.3787 101.665 42.544 102.198 42.544ZM109.774 44C109.07 44 108.553 43.824 108.222 43.472C107.891 43.12 107.726 42.624 107.726 41.984V32.16H109.774V42.368H110.878V44H109.774Z" fill="black"/>
</svg>
