<svg width="20" height="21" viewBox="0 0 20 21" fill="none" xmlns="http://www.w3.org/2000/svg">
<g id="facebook 1">
<path id="Vector 26" d="M4.52381 10.5157V18.2541H1.19048C1.19048 18.2541 0.767708 18.2528 0.396825 17.8565C0 17.4326 0 16.929 0 16.929C0 16.929 0.026455 9.75761 0.026455 5.16248C0.026455 4.55299 0.529101 3.25439 2.06349 3.25439C2.80423 3.25439 3.22751 3.62545 3.22751 3.62545L10 8.71364L16.7725 3.62545C16.7725 3.62545 17.1958 3.25439 17.9894 3.25439C19.2063 3.25439 20 4.28798 20 5.16248V16.929C20 16.929 20 17.4325 19.6032 17.8565C19.2063 18.2806 18.6772 18.2541 18.6772 18.2541H15.4497V10.5157L10 14.6234L4.52381 10.5157Z" fill="currentColor"/>
</g>
</svg>
