<svg width="44" height="44" viewBox="0 0 44 44" fill="none" xmlns="http://www.w3.org/2000/svg">
<path fill-rule="evenodd" clip-rule="evenodd" d="M21.891 9.5571C21.7185 9.43945 21.7914 9.1665 22.0002 9.1665C29.0878 9.1665 34.8335 14.9122 34.8335 21.9998C34.8335 29.0875 29.0878 34.8332 22.0002 34.8332C20.718 34.8332 19.4798 34.6451 18.3115 34.2952C17.1435 33.9453 16.5596 33.7703 16.5568 33.4011C16.554 33.0319 17.2158 32.8227 18.5394 32.4042C23.7343 30.762 27.5002 25.9035 27.5002 20.1655C27.5002 15.7569 25.2772 11.8675 21.891 9.5571Z" fill="#F6B637"/>
<path d="M18.3115 34.2952L18.4837 33.7204L18.3115 34.2952ZM18.5394 32.4042L18.7202 32.9763L18.5394 32.4042ZM16.5568 33.4011L15.9568 33.4056L16.5568 33.4011ZM21.891 9.5571L22.2291 9.06148L21.891 9.5571ZM34.2335 21.9998C34.2335 15.2436 28.7564 9.7665 22.0002 9.7665V8.5665C29.4192 8.5665 35.4335 14.5808 35.4335 21.9998H34.2335ZM22.0002 34.2332C28.7564 34.2332 34.2335 28.7561 34.2335 21.9998H35.4335C35.4335 29.4189 29.4192 35.4332 22.0002 35.4332V34.2332ZM18.4837 33.7204C19.5967 34.0538 20.7769 34.2332 22.0002 34.2332V35.4332C20.6591 35.4332 19.3628 35.2365 18.1393 34.8699L18.4837 33.7204ZM18.3585 31.8321C23.3112 30.2665 26.9002 25.6343 26.9002 20.1655H28.1002C28.1002 26.1727 24.1575 31.2575 18.7202 32.9763L18.3585 31.8321ZM26.9002 20.1655C26.9002 15.9636 24.7822 12.2561 21.5528 10.0527L22.2291 9.06148C25.7722 11.4789 28.1002 15.5502 28.1002 20.1655H26.9002ZM18.1393 34.8699C17.5747 34.7008 17.0872 34.5562 16.7478 34.4011C16.4505 34.2652 15.9612 33.9871 15.9568 33.4056L17.1568 33.3966C17.1551 33.1843 16.9592 33.1783 17.2466 33.3097C17.4919 33.4218 17.8804 33.5397 18.4837 33.7204L18.1393 34.8699ZM18.7202 32.9763C18.0413 33.191 17.5885 33.3353 17.2997 33.467C17.1551 33.5329 17.1025 33.5739 17.0921 33.5838C17.0907 33.5851 17.1084 33.5688 17.1262 33.5323C17.1457 33.4924 17.1571 33.4447 17.1568 33.3966L15.9568 33.4056C15.9545 33.1049 16.0979 32.8728 16.2664 32.713C16.4206 32.5667 16.6157 32.46 16.8017 32.3752C17.1739 32.2054 17.7139 32.0359 18.3585 31.8321L18.7202 32.9763ZM22.0002 9.7665C22.2 9.7665 22.3419 9.61976 22.3812 9.47648C22.4188 9.3394 22.3769 9.16228 22.2291 9.06148L21.5528 10.0527C21.2326 9.83426 21.1409 9.46185 21.224 9.15888C21.3089 8.84972 21.5915 8.5665 22.0002 8.5665V9.7665Z" fill="#F6B637"/>
<path d="M10.8294 16.7164C10.9805 16.9415 11.0703 17.211 11.25 17.75C11.4738 18.4214 11.5857 18.7571 11.7502 18.852C11.9048 18.9412 12.0952 18.9412 12.2498 18.852C12.4143 18.7571 12.5262 18.4214 12.75 17.75C12.9297 17.211 13.0195 16.9415 13.1706 16.7164C13.3154 16.5008 13.5008 16.3154 13.7164 16.1706C13.9415 16.0195 14.211 15.9297 14.75 15.75C15.4214 15.5262 15.7571 15.4143 15.852 15.2498C15.9412 15.0952 15.9412 14.9048 15.852 14.7502C15.7571 14.5857 15.4214 14.4738 14.75 14.25C14.211 14.0703 13.9415 13.9805 13.7164 13.8294C13.5008 13.6846 13.3154 13.4992 13.1706 13.2836C13.0195 13.0585 12.9297 12.789 12.75 12.25C12.5262 11.5786 12.4143 11.2429 12.2498 11.148C12.0952 11.0588 11.9048 11.0588 11.7502 11.148C11.5857 11.2429 11.4738 11.5786 11.25 12.25C11.0703 12.789 10.9805 13.0585 10.8294 13.2836C10.6846 13.4992 10.4992 13.6846 10.2836 13.8294C10.0585 13.9805 9.78899 14.0703 9.25 14.25C8.57859 14.4738 8.24289 14.5857 8.14802 14.7502C8.05884 14.9048 8.05884 15.0952 8.14802 15.2498C8.24289 15.4143 8.57859 15.5262 9.25 15.75C9.78899 15.9297 10.0585 16.0195 10.2836 16.1706C10.4992 16.3154 10.6846 16.5008 10.8294 16.7164Z" fill="#F6B637" stroke="#F6B637" stroke-width="1.2"/>
</svg>
